<mxfile host="app.diagrams.net" modified="2023-12-10T11:11:53.216Z" agent="Mozilla/5.0 (Windows NT 10.0; Win64; x64; rv:120.0) Gecko/20100101 Firefox/120.0" etag="h6_HKzW3HCxZIIwFSEEL" version="22.1.7" type="device">
  <diagram name="PÃ¡gina-1" id="zHUS8T98wytE7VXFbv7T">
    <mxGraphModel dx="441" dy="232" grid="1" gridSize="10" guides="1" tooltips="1" connect="1" arrows="1" fold="1" page="0" pageScale="1" pageWidth="850" pageHeight="1100" background="#FFFFFF" math="0" shadow="0">
      <root>
        <mxCell id="0" />
        <mxCell id="1" parent="0" />
        <mxCell id="LNzFgeBaJYBjP-Y_PhbM-1" value="" style="rounded=1;whiteSpace=wrap;html=1;strokeColor=#3399FF;fillColor=none;" vertex="1" parent="1">
          <mxGeometry x="150" y="70" width="150" height="110" as="geometry" />
        </mxCell>
        <mxCell id="LNzFgeBaJYBjP-Y_PhbM-2" value="Actor" style="shape=umlActor;verticalLabelPosition=bottom;verticalAlign=top;html=1;outlineConnect=0;strokeColor=#3399FF;" vertex="1" parent="1">
          <mxGeometry x="20" y="90" width="30" height="60" as="geometry" />
        </mxCell>
        <mxCell id="LNzFgeBaJYBjP-Y_PhbM-4" value="" style="endArrow=classic;startArrow=classic;html=1;rounded=0;strokeColor=#3399FF;" edge="1" parent="1">
          <mxGeometry width="50" height="50" relative="1" as="geometry">
            <mxPoint x="70" y="119.8" as="sourcePoint" />
            <mxPoint x="140" y="119.8" as="targetPoint" />
          </mxGeometry>
        </mxCell>
        <mxCell id="LNzFgeBaJYBjP-Y_PhbM-11" value="&amp;nbsp; 8080" style="edgeLabel;html=1;align=center;verticalAlign=middle;resizable=0;points=[];strokeColor=#3399FF;" vertex="1" connectable="0" parent="LNzFgeBaJYBjP-Y_PhbM-4">
          <mxGeometry x="-0.2457" y="-1" relative="1" as="geometry">
            <mxPoint x="4" y="-16" as="offset" />
          </mxGeometry>
        </mxCell>
        <mxCell id="LNzFgeBaJYBjP-Y_PhbM-5" value="" style="shape=image;verticalLabelPosition=bottom;labelBackgroundColor=default;verticalAlign=top;aspect=fixed;imageAspect=0;image=data:image/png,iVBORw0KGgoAAAANSUhEUgAAAJUAAAB1CAYAAABH5qPNAAAXaklEQVR4Xu1deVxVxRf/sgnIJoqKCrjikqS4IEg/EFxySdMsLSv3FNNUUlzRtNxFc18zc6msLK1cyh1cEBU3FBRxV1RUVECQReB359kzIt69c5d57z569x/4fN7MnOV+75mZM+ecMSvkHpgekwYU1ICZCVQKatM0lEYDJlCZgKC4BkotqDIy03E79SpyrNLwLC+TU5xxzvJWFmVgXeCA8tZVUcXFDebm5oqDQOkBSx2obt27jp03VyP+fjTIctHMzOxff4kSpfym7cOyPx+NCrZVEFixFwJe6QRLS0ulsaDYeKUGVOeTzmD7xTW4g3jOJhUopiA1DuRgXR4tyryDNwN7qdJylQpQRZ3fgd9uLMTzwjwNBnRZIX1YGrn0xfBYr2Jz9PWaCgd7B1Vh3+hBdeT0fvyY/MVLIMl9qYbuLwZUZGpvaBuMkDZTTKBSSgMJV85ifVI4svIylBrSKMdp5vQG+gaM0awf1fAYraXKeJqB6Yd7aQBVdDFuaEsjl75YS6Vt37XiWLTx7aQGTBmvn+r7fStwNOsHVShRDUw4F3pgcse1sLKyMjg7Rmmp0tKfYEb0B8h+ninKXSDVChRf+BvKpSDEf7BLX3RvOcAEKika2HhgEY4/3SLaByX0UrRrEkPuHuXwWNbKAeH+38HR0UmKWhXrY3SW6tL1BCw/Pxz5hc8VU0JpGiigQi/09B9iUJGMDlTL9kxGYs4h1XrEDbVQ11o4G0s7jbVycixnMGAZFajOXz6NrxPH4nlBrsEUZgyEPcv445N2MwzmbTcaUGXnZGPukY/wIPNWiWspmrUITRu5lkZuf6V4fNN9JNo2fssg34DRgOrryJk4k7HLIEoyRqK2VvYI9V6Fqq5uemffKEBFpr3VF0dxyimUda6nlBVQq0uhuBPY17kbPngt1ASqkjSwNmrWSyslZ7v/XwOVfRlnTG71PWytbfUKLNVbqqRriVh5YSRy85/pVTGlhZi3Q3sMDJqoV3FUDaqCggJEHA7B7bRLLw9L1WKpyMvq8MqHqFrRHZrAwPj1iH92QPPy1MKjlo/B9b+EV52megOWqkG1J+Z3/P5gvt6UQUOIBMh1rDAMAc3a/qt5VOxu7Hy4hDvkTqcZSm9tPO18MaL1XL3RUzWoZhzoi5TMG4rFSimxpupfezaavtJS5wsiwPr57gzVuT36157D8e2nF2CpFlTbTq3H7uS1elECLRFX+xoID17HNeePW/p83wd4mHWbdli9tCtv64rRvqvh6MD+XFCVoEq+dwsRJ/shv+C5orFSci1VLUtfhHaYLQiqRdGhuPLojOqOkoKc+qF7QD/mIFYlqL7duwzHszcrHtYiF1SuaU0x8QOyxuO3VGoFVWW76pylXf/fA9XDR/cx/8QgPM19wlT4ao51UDbVDWY2+XhQJhGPn90XpFclvRk1qC6nnuYdz4wDZk3nhrB74sF9PAV47HgZyemXBXmQ2+D1agPQpWlfucPwy6a2tPe1J6fg9J1IJrFSxFJZWVijfZVBaN+kxz8Us+bADMRl7uF1CShpqdpVCEGXlr3+wcP2E99h9701JG+clw/yo1S3hYW5JYZ6LUHd6q8wA5aqpr8/j/+MHSlLmAlb2dwTfbwnwaNajX/RyMnJwcqTY3E59YxO+kpZKr/yb+k8Pok5F4WtyfOYuiXIhuNT3xUoW7YsE12rBlRk2psZ86EmrIVF9rBHufoIaTyXNyrywtVzWJEwXCd9JSyVtWVZTG+9FTbWNjpf6P2HKVh9bgxSnt5gYrEJ4Q4VP0Yn33dLN6i2HFqHyLR1TMx+JTt3zZdpV9ZeUIkjtgcxBRUB95iAVYJ8EGAtPj0U6Tmpim9YCPHqTg0wOmCFIB9SGqjCUqWnpyHi2EA8yX4gRQbePk42LuhTezrq1mogOHbWsyyM29uR6fRXgfMXTW37oyAvpEH8pTh8e20ys03LG5WHo0OLd6h4EdNIFaDadDYC0Te3C57viV2gWlvYYpjXctRwr0mlk71nt+L3W4uYWioSntK7xgz4eL1GxdOVa0lYljBUk9JP4xKhaaPVI9m0TPT7Fi7lK1HxQtvI4KCKSzyJNZfCmBTV6FZtFNo07UqlC2IVNlwl2c66z+2UWqgT73b/ejM5sNem4m3nsZ/wx/1lVG3FNvJx6IY+QZ+K7cbb3uCg+vKPMFzPj6X6CsVYKl/3jvjQezyVssgCfUPSJGTmpfGu6ZRYqGvTwEis00DPuahd05OKx6KuFjF6ECqlZGVujXEtNqCSS2UqPmgaGRRUp5KisT5xEgoK82l4pW7jXOCOiR3W8O6wtIPtjt2CP1NWII8imUIpS6WlbWVeBl2qjUSwd2dB2Uia/4LjQ7gYfeXPFOtz1WOG+MyBhYUyNa8MBiqyKJ5xuDfSsx9Sn+/RfqFvVRqL4BbCdQWOXtyLTUkzNM5GmrWIkpbqJb1CM/TyDEfL+v8OpSmOtF1HfsWOxwt5rSmNHCXp8W3XCWjVvL0guGkaGAxUWgUpnVLuUrYaJgR8w9UUKMMrP4l7X5MYJurQmgWotF7+kd7LUb1qHV6eiYP2i4PvI6MEN4NcPdawaI5RHSM4+vIrxxgEVHl5eZgfPUTxsy4LM0v0rTMTTer78r6ch6kPsDJutMa5KOZRevorSrtCYQ2Mar0EjvaOvCyRJcO6i+GKb2zMzSzQt940NPWk25XyMWkQUG05uhYHHq4X7S0Wmv7+V70r3m1Esm50P8+fP8fimBG49jheNH1Wlkq7mPaq7I+QFrMEcb7h9AycuL1bciCgLj062lTAxP9thJ2tnSAPqgLV9VtXsOTcMMUTGcpY2GCC30ZenwuZIlbun4qErEhJSmNpqbQMvVlxNNr5vcnLH4k3m3dyIHeklSNJDr5OJObq7cD+ssbVu6XSpltJOd/js1R1rFpiRHv+r/xEfDQ2XnuRWSKFPmtLRSwWWRN+1vo7wZc6Z9tIJJudlSQHn/xKpHXpFVR8daWk7lq0/UoKJSn+Zlbt+1ww44VP4foAFZHnnSrh3E7sdV5g/XxwLQ6mb1AcVIS+3DpXegMVSbdauiccSbnRgl+hlAbjfb5FNVd3nV1THt7D3ON9uWk3W8rwmj76mP4IHeJxD/Nbw1t1OPFKApYmfCxZFr6OZCnRv+5sLq2riaTx9QYqoXM1OZbKzckT4wK54Dae56vdsxGX84es80V9WSoyDQZV6CNYFW/qvveQmnVX9IaDzxpr38ML18w6SeUe9QKq23duYXHcEO46j6eSkC/UKcChN3oGfaSzWWbmU0w92IMr55glNBTv7/qyVIQJEl0xJegH3pf6w9GlOPJwsyyZ+Dq3cRiMbkEfiB5fL6DaePhLnHjyu4Y5qWGwfKUTQ71Xo7Z7PZ3Ci6m1roY1lVbWPu6z0byx7lw94sBddSGUiaUieihnUxGfBW0SfWUJc1DdTL6OJXFDNUVfWTykZM7cDjt4h16/axFic7fIJq9PS0WYbeXUF+8E6i4MS5zI43Z3ojq3lCo8X+izrjGZg2rhkeFcDlyc4FpG6prKzdETYwO/4tVZxI5Q3Cr8Ow+PzxqpyVJ5lnkNw1/nziZ5nukHeuM+VwhO7jENX/9hDZajXm36RAmmoIq7wJ2vXfmU6rBWKqjczbwx5o0Xh6y6HjHp82oCFU3I75KjnyKJSwdjCapG5p3xUacwamPHFFSrd0/HuZwXaU+sntq5gQh9exrv8GE7OyBHgVJE+p7+yGJ9ertfeGWb+8NY3LI7xkq9mnFJUZIprX6AtbU1FR2moPpsbw9N3DmNFaJpU5IVEfqKMrOeYvy+NxQJr9GnS0Er65IuUbwvctlv05BosY+ppSLv5q1K49HaV3f8flEmmYEqKzcD43YJB59RQZ+nka9tT3zYdpjOFncf3OZSv8Rvi0saUN+WivAwrdWvKOforFO+tX/Mx+nnL3bWLB8ft9fRp0k4FQlmoLqbcQ0zI/tRWwiplqqFTQ9eUN15cAuzuHxC2kuRSrKGWt4MYakmcIkJpLCarkdK3Qk+GXW9h8r21TEpeINhQXX10TksOPIJFRNyGunTUrk71eN2miRnjz+QbWbkANzNuCJHrJd91WKpyNHN/E501aGZWaokLn18cfRIagsh1VLpc00FLvQ3zGctPFx1p3xdupGg8cuRq/ekREIU14Na1lTE0i/uHEn1oRg9qOrlt8GwrpN5hR21ox113pzQ1ECumB3SfE6JXmYSALjg6DDcfHJRcgBdUVDZWTlhVvvfeGWb99N43Cwbw3yhrgpQJadfwewo9teEuec3xdhuC3gVP23/hxoHoVKPu1NdBDv3g8+rf4feHjt7GPsff407GVeVIgOag/Iv93yKa9mnFKOpayBVrKnSs1MRvqc78+nPg1vnhAnUJpi/czRuFJykcm0IWaqiZ5D2Zcqhsr0HF+t+U5OarsTVbkUtFY1HvbhjV+oyQsh52sg1AIN8plOBl9n0R5icsLsrMnNfJGiyemjO/sgO6dizn1ixwGxcNZz9aYUTU3eBGagIM4t3TcDlvKNUFkLOFyYYpXAiCj+mTKHiQ4ylEsr+lbtQN3SUgpZ/SzMrTAveSlU1h+iPKah2HPwZu9KXUr1MOaAKth2M7m11OzifpD/G1EPvvMzx4wOOWkBlyWUvz2qzjfdohFVWUvFpnOZ8tai5ZgqqrKwsfHksRLPmYPmQtO1hfvxF/El8+vms/SzZUHRsn3Jd0CeA/xB33qEQ3OB2mqyf992noaV3IDUZpqAiXGiq08WPEKxjKcdSkS/ri8CtvMcZKal3ucu83xfkQw2WipT4mdRyE8o7V9D5IknM/YyY9yT5wsTIKGaBrmWWOagIoVUHp+B8WiQ10qU07Fo5DG1bdOHtujxyIi5kHJEyvF77tHEeiG7/68NLc9vBH7E7bTlTvsjudrTPV6LrV+kFVOQmrCXxIRoFsAgnJpaKJu8v7hKphTWalw+WPNJYY1JKclLwRkGwzN8ZxrlJ/i7BJOQSoD37LMqj0LmqLib1AipCnHWQPqmaN95vg+BXtf5QBGKfbBd8aYZqQGNxWWYoa+UmMVSjmhMr5SJaFXoDFTnCIEU5bqclST7CELIijaw7YtDrwoXOlsaMRuKDWNEJAzSWRohHPgdpk6pBGNDsc8GXyKqWQlFr1qvOJKryRiUxqzdQEeKnEmLwzZVxzEBFFrjjNVXhXHlfDKn8Oy92gCYZQ8y0wRJUJN18rN9a3s0GEYrcLTj/5EeceySPmR49XZpgREv+EG0+BesVVISRxfvHIimTXfhrXZemGNoiQrAq3KHTe7D59kzFS/IImpkSGpCKej09wuH3ahBvd5I9szhmJK4/iZdChqqPraU9RjZZwWV7e1C1N7ilIgxoL9km97GI9UjTTi2sKumxsFTEWz2o8Rw0cBO+OZRlJT2tbEpc5q13S0WA8XXkzJcXbUv+HHg6aq7J8FuOshR1lg6c2Y5tyYuY5s7pYtWGu/2hu0cYWjZsI6gGljU/tcTJOWqo9ypUdXUT5EdV0x9hJjsnG19Evc+d7D8StaahtVTkqxMTU01qlX9zebzmdgUxNMRa2qKWztmmMlf2ejZ1jfevTkxC3L1DikRC6JKxq0co2jZ+SxagSGeDWCpC+LsjC3Hs8a/MQEVeeL9a5GpauiteL9+8iA2XJv8j+0fKgTANKElVlz6e01HLg7/Gp/btiknblzpFE5BPCvoWVpZWxguqO/eSsfBMCFe0I0O2ELoGqGjnhkGvzEMV1ypUNEjF5L3HtiGucIfoeqA0BKo41EIzq64Iat6ROoeO+KRWnw/Do2f3aEhIbtPOcQjebPXPq+KkDmYwS0UYJuWFfru5kDqQj8YKFG9DgBXafDnv7VnFlUd2WXvifsHh1B+5KfqxbGtKCl0EV+qNVl6dYW5uTv2uSMHbBadCuLLgqdQ6kmKpiI5oKjrTMm5QUJFCaDP/GIyUgiRafiW1q2bVEEP9Z4kCFiFEoixOJ8Yg8XEs7lsk4l7GdeQXPhfkgYStkIhQ5/Q68HLzRbMG/rCx0X0VW0kDkkuglkdPQHIeO/cBoUt4HVhvruQCZyXxblBQEYaiYnfjl3ucv4hbXAuF40qxVNrFNImxHtGMKyntKP22czI9XrwWh1spN/AoJxlWrrnkMJNbmZohP8UW5cq4opabJ2q71ed2ntIvaCQbh03XpzG970+r73rWARjWjr9sgOBXVKyBwUGVn5+PlSfG4iJ3bML6cUFN9OaybMmLV+sTefJP7HywhFmBuKJyk7rzmqtva9BXdKHRm8FBRZgkxyZzjvfhfEUvSjhL2XXRWDrShtwh3LbSAHT2USYVnkbJNG3IUmDzkdU48oS7C5DhHcpFZ4MW9t3RO3gkDXui2qgCVITjZXsmIzHnEHNQaZWqhOdYlKYFGq87OBen0ncyXwZo5bextEO4/3dwciynpBiasVQDqkvXE7D8/HCqhbBSWiD5e3627yLQR/iyIaVoFh+HTHdH0jfh3tPrrEiUOG5AhV7o6T+ECU3VgIpIt/HAIpzI3Mp0+itpM0BO5Tu6fgzPmrrrhiqtfRK4uOPO0pdVBsVES/AtEWiWAeTQmFgpOZsWPn2oClRkd7UidjR3Cp+g9DsUHI9sratbNEUtm6bwb9RGUnCaEBHidzp+eT8upB7H7cI4zc32+n7MYI4eNcYj4FVlrmEriX9VgYowqIkXih2IAuSLcjrSfKE0bQgPJHLAmwuY87JuQ33MwweOmLNROJe7B/EpRzVyybU0cvr7e3RGr8ZjmGJZdaAi0uqjrCOtVsnJfUWzWij33B2u5d1hV1BeE0jnYO8EZydnzkVlzoG/AI/THiPjaRpIjuFTs4e4m3oTaVa38RDX9eIeoJGHePbH+H7NbNrT8qBKUJHzroiT/URd8EhjhWjayLECQs5bGvo0baTySG7I6h7QjwZ/stqoElREok1nIxB9c7uiZ14sXxjN2Eq1kQIqEmo9kavK51K+kizA0HRWLajI2VfEsYGaUBTTI18DYgpsyKWmWlARwbYcWofItHVUDkFDWgEpOXWs8h9L0gNNPXa5QCraX9WgSs9Iw3yuFsOjZ3eVlPk/N1ZPt3AENOG/P1BJpagaVETQF2ld4zU1NKWsJcSG/MqlIbc/jcUVQ+NFuhWpNCj/Fnda4KkeVESQ+YeG4kbaC4eonGlD6RcmFrA09Gna0OqBFL79pNFS1K3ekBYPirQzClCRHL2fbtOVBlREK6VkEC+nIIQETtWrlSKqMwpQEUYXcxf7XC7hYh8xZ2ZKWgGW4TlC/i5aSzW84UruPLO+3j8RowEVcYguixuJjL/SqPSuKSMj+JpLD7zXkv3lCCWpxWhARZg/enEvvk+aJrmGwH/FUpFS2aP9V4q+UVSp78aoQEWEjtg1HDdz45SSv9SNQ677GNJgsV7DeIor0ehAdSI+GhuvTWQWc0W7XlHrmsrboT0GtJpg0I/F6EBFYrkjDg/WWefK0KCQS1/uFD24/gJF062koNPoQEWEJFGTKy+MQG5+thSZS20fYqUGBk00uHxGCSqitbVRszSVY0wuhRf5kqRo2metNsHGWlzSKgsEGi2obiRfw+KzQ0zW6i9U0FQ0ZgEgo3cpFBfg+KUD2Jg4VdGYK7lrIrn9paypajo3RKj/UlF1GlgCzGgtlVYp5CaH+GcHFAuPkQsKuf3FgsrRugJGNFnO1TmtzBInosY2elCRIhqbTy7D6bQ/9ZozKErLjBpX5UoTdas2Gg08vRhRkDas0YNKK/bR+H3YfGOOJu1JTiSDXEsjtz+tpXrVrg36B0wwmNecD26lBlRESJJXd/TSXlzIO4BbaYnSPjMV9yIF8+vatEQjl0BFUsdYiVqqQFVUSSR/MOr8Djyxv4rUzDtcaWuu5M9fZX807bT/F//L95s++hejYWddjksPc0ODcq/B1ysAVlbyyyeyApN23FILKtaKM42vWwMmUJnQobgGTKBSXKWmAU2gMmFAcQ2YQKW4Sk0DmkBlwoDiGjCBSnGVmgb8P4JJfXMQyBRnAAAAAElFTkSuQmCC;imageBackground=none;" vertex="1" parent="1">
          <mxGeometry x="233" y="100" width="63.68" height="50" as="geometry" />
        </mxCell>
        <mxCell id="LNzFgeBaJYBjP-Y_PhbM-7" value="" style="rounded=1;whiteSpace=wrap;html=1;fillColor=none;strokeColor=#3399FF;" vertex="1" parent="1">
          <mxGeometry x="160" y="90" width="70" height="70" as="geometry" />
        </mxCell>
        <mxCell id="LNzFgeBaJYBjP-Y_PhbM-8" value="" style="shape=image;verticalLabelPosition=bottom;labelBackgroundColor=default;verticalAlign=top;aspect=fixed;imageAspect=0;image=data:image/png,iVBORw0KGgoAAAANSUhEUgAAAOkAAABBCAYAAAA0eINgAAAgAElEQVR4Xu1dBYBUVfc/27t0o+RSEkooIoiItNIKCMInKa2EoLQ0Sywg3SUiEpILSKmoIIpSSgsoSHfD9v93zn135u3s5O6CyH/e9+Hs7rx3373nnq7rE4+LvJcXAl4IPLYQ8HFFpF4afmz3zjuxJxQCPj4+CVbmkkj5biZUftDRpzv36Gc9ufdxfuZJWUdSYOxdu3N6sKWTpMJLU6pLIvVK0ieUXXuX9dhC4D8tSWNiYsjX14+uX7tJe/bsFelepPizlD1rFgrw9cHv8QQeJ39PKvdypTUkRfI8rs+QTyzUJF+KjY6nuPg4OnH6FD148IDy589PwSHB5As4+gGQDE2zJvWwYfu4wutR4JV57f9JSRobG0vf/7STBo8cQ9Ex0UAwotQhqah/n170Wvmy5Mt/EJTyXu5BIAYmjA/9fuAIjRoTTqfOnRGYpk+fnnr07E4VX3mFAkGoPrjHC1b3IJoSd/0nJSlzl7i4OFl/yw4d6PBpIJMmyLh4yp4pI3315SIKAEL5+/h6JakbfgTh2BRD0SDAd9u2p1Nnzog0VdQYT+nTpKLlX3xJ6VOlZqeEV5IaMHiUWoTbktSdSblzT3JUGH5W/6vyRk2KhIqmiTQGOOVLcbRyyWLKmjEDOL+fl0g9INLrd+9RzbebUGRcLPlBiioSJfLH7/NmzqSiBQrKH7zqrmJUnuB6cnDeLJH/M44jRpxoYEulGjUoNp4tJXXFAnABkABrhEgzko8vE7D3cg8C8XTp2nV6s+m7gC0IUSSpuhgf50+aRMWeKUBxsPV9yd+9Ib13JRsC/0l1lzl5HP4TDcSpVL06xQJhNJeC60MR6ZeLKRvUXniWHgnHe5Qc1V1nlsecG4u4eO2alUhhUlgkJnjd/Ikg0sKKSP18AiwwfyLWbgoperIeT+71eD9s5mRhmP+VZAazJI0xSdI4LUlBpFlBpF5J6gkjt5Gkht0vktSGSL2S1BO4Ju9eryT1JmVYpaVXknqsdXklqRMG5JWkyePO9p/2StKHAdXkjumVpF5J6pWkyQgpeSWpV5Imlwl7+LxXknoIsEdy+yOVpBx004kI7J1llZX/+cEDy79xkZxMSKrlfCSYzr/7IcDuZ8Sk1ITxXUp7d2UueK9RqcfhnTgjaYLfySlxEofgtxufnPHElz/m4+sHL7JOQbSJI6ZEIUI8w8JI84nltSNuyeP6+7FnO44ioyIp8kGUzC0oKIT8AwJkuvHIxPL384OTW3m545HsYRvjtPyeRJuUYRWLueCN5IvPWN4dvIffCSCqeXOmEmCkEyHck0AIAbEnH2uNBqx9/P0EX+7du0eXL1/FeiMpKDiY0qROTZmzZFTeZnwfwAks+OSUUXmPsWfuesXdmxvm46NCVIwycYjVx8TGyH7EYj/iDQ2NcduPl4F7GEcEDvKM50n5miO4jJO6swBH93AMk2cbA6AfPnKUftn9K504cYJOnz5Nt2/dplj8nZfgH+BPGRHjzJcvH5UqWYrKl3mJsmXOrFBU0tJSPgSjMFoxjlh4NfcdOkh79+2jw4cP05mzZ+j+/fsUHc3RQ6KQkBDKhPmFYn7Fn32OypUpg98zCbNhYgYQnVYJJdUVr5nEzTt36IedP9Hu3bvp0OFDdOXKFZlfYGAgEJoZjS+lS5eOChYsSKVLlaTy5cpSvtBQgZ2vQezmOSSXSJFMKAyNSYPZ7eE/j9OyZcsoKiqKypcvT9WqVqEg/wD5XrKpPUgC4P3g/OGffvmFdvz6C+3fv58uXLiAMfwoJhrBNyZcvDttutRUtEhReumll6haxdcoU4aM5MdEYVCRs6qtpFWpgPIYEQ0uEBkbT0eOHqUjR47QmXNn6cbtWxQVGUVZs2WlmtWqU5FChSBoFCPXwsrTOblNpEmpguEUPl7OqYuXacPXG2nbtu/p3IXzwn3duYJ8/en5EiWpdu2a9DIQLpU/gI8NiOU4KZIZkhuCYYkYBxT65/wFiohYR9u+/4HOXb3sztTkHpakhbAJ1apVpTo1qlG6VCFKiqTg9QBIsHvPPtq69Vv6cecOun3/noPRmZVZkzsAJWEaRYoUoXr16tDrryL/FsSsJWvCQZKu7jLxRQKOqyPW0oxZ8ymKGRozUyTtV6lakQZ93I+CINHduSSbDDeevXiFVqxcRd9+u42u3Lgm+225RIpp/GEGa4V3EIihTOkXqUaN6lS2bBlKG8RaBRhICu5JVCy0FxR4MKP85tvvaNfuPXQbzFOUMUzHmgZCFJzKj0YPG05lSzyfpJTnh6vuGpzzQVQ0LV62hBYs/gqJ8DECZ+a8vBiDEVnSz3QamvmTiUDUNNxcoEB+6tquFZV64Xnsiw9VrvE6Mk6TlswQC0AzAO7cv0vzFi6mFWvWURwQjSVprGbCeKe9OZlT96FMisrJPCdT+tTUpUM7qgnm4cNzxhxFrTckNUta9ySpYmw85rUb12l4+ETatetXkYb8TRzjpd258fiieCuphXlhCnLxR9F8uWlAv34UmjeP/M7r91SSxkKC+PhgV1itl81Ums3ny5bSjPlzIM0hNUEovM5YEKmvbywtm7+Q8j6dQ83DjiQ1Ey8j/4pVq2jOZ4shRSMN+DHBm9aMcdUKWaDxT0j/NMiW1W7RtrCP2bJlox7vt6MKkOjCmIwXOZNigpN2tCFlEKm3/vjLLpoweSqdO3depHksmIQy19QcGbf1/sT5RVMZCJmpo8cCUxKmVLqr9prh41Ld9USSclbZ4cNHaey0ybT/zyMAI1LJ3BOe5jkl+JmBHEhR9Nabb9J7bd6jWvXeRAqblUN7kswQAyLaf/AQjZ8yiY7/9bcgd3KveCS88myqvFSeen7QhTJnzSTIxdYrj+5uMh3b4zHY9Q1bN9G0WTPp5i0gazJhx2vzxRqzZspAn8+bjaT51Er9slzuSdIYUAAye2Wd/phTDPZ54ZfLaPbCBWCYipnqffaHWgrOTPNnTaPCBfNb7HpbOAteYZxDMIPCp02hw3+foHiUzCUXX3gy/hj4tQqvUrdOnWE2ZQKxJm2f2Q9w+fo1mjprBn37/XaKTSDaHWMOwyBPrhy0CDBnc8DKKtzDtociSXXy+48oIxs2ahTdiXwgksknTtkP9pKzzRxWT90+l1EJ9OyQKFCwAJ04+Zeoqp6kBYr6jXms3/INhU/4FJUfcTwcpLXjxHE9ZzOTsreOeM5rxb8AEEPuHDlp8oTxlCFDeqVusfPADUnK74iMiaUZ8+bRslUrQOSQnqByTVCOuK+ej5YEZpjqZ9gJxyrw5PHhVKr4c2JFJkWSwotjcQIuXvYVzZq7QLaNpQzPV7+PETJTmnS0dNF8SgMzwHZOeq58/5bvttHI8LEomIgFsUPLAb7Ywtgebui/2ZWOzDQY8IBn3hy5aOLYcHoK9cYa8e09o+dk3nPW/E5Ban7Utw+dvXTR0FaUuuXMMaj23YeqVn6NBvftJbgBz8XDdRy5K0kjIiIofMpkesB2sqG3xZvS9+zxELPq5fQ9nKNm4v5mEeOOJGUbdOXKlTRp7lwhUJYMbNP4sshzcLk7N1VoztSuhEDep7LT+NFjKPdTT7tVh8nrZofL2ElTKWLTFjA3ECjG8mMO4kCSshrHz/GnLuEzE6p5SYpI42jaxPFU4tliSZKkkmCPvbwHj/IESL21GzeLd9MfU2RPZhSEp55qCDzNIwYOpJfLPA/HSWLgaoa+Zs0amjB7FkUxQ2KTiM0hO/ii94FH0uvWTNfu1rEW4xsnUp/nljNLFgofMUKcku5ejC/7/zhA/YaNpJt37wjOiHPQhWqjbeDCBZ+hoYM/oVxZM4skTai9uJ5FikvSeMD3J3jh+g4dRA/EjlQIxFcse7fwI5dA+cHwT5UqkEqXLk0loa8XypuP0qVJI/deunKZ/jh6hHb+vJNOnjwpFRmcPCqWljgVEjogxBYxJLSzBHvu5MDjbNiylcZ+OpEexGJksfGYpoSTsKgTAvOF4yM1XPtl4S18vuTzlD9XbkqD+bEH+txlzO/gAdrx0w46d/Y87I9AsUE4FMHjcBhCiETGi6eSzxShKaPDKTgwCALIsU3K9jAHWmbOmQ/7brnY3Nq2YenHdi3bfozs/tAGihcvQZUrV6ZSxdCNArZXMMIRd27fofPnz8Pre5g2bdpEh0+eQuhDST1eV4xfFGUKSU1L5i2gDGkh4aWDhTEnzNlRgn1MQDwtmDCZShZ6RubAKu6o8Z/S2s0bMU8wOB5ebGGowiAK/p33uU/PnlTn9dcFGn68HrHbFLWynyEeDrFtcIT1Hz4UyC8bbSjgPoIvehwfIFbatCFUqVIlevnll6lI/oKUFR5/dlCdOXOW/jh8EA7JbbT/999hH0LBxbPRMlPeAoYqazjMiIkKhual6ZMnYD8CjBCWfe2O/Qw8n5OnzlCXD3vSNRCoDh0qrMFz7MDEXgQAL1hLejpHDnq2cFHKBO96mtRpqCS868WLFyd/DsXwuuX/jvuDOZPKmpyTZZPyBhw8dIR69OlNt6IfCMKJMaZgLxKBgR6aMzc1bdyIqlR6VRCLv2MHvZaPrFpEsQqKxR/78xgt+WoFbftxuyC9mI1QgxxdziRpLNSoY1CPu33Um27evoexTKKJnSGGTy5/aCg1b9KEXkJohQmTgc+2l+biMjd2imBjDhw4REuXr6Kff92Fqhw1nhE+U9IUCw4AMjasXY+6f/A+wgKOpTXH2b77cQcNBseO483XpWLyiEIKduOXf6kMtW7RnArkLyBMJhjxQD0qb7KWLPy55+Bhgd2evXvp+vXr9GzJItS2RUsqGlpAkJaJ1Ho5tkljAYD5EydTCRDpfRDG2IlTaOOWLaKWyqo1KI25BoExvN++AzWoV5cCdSjEzqadO3eR2nf9gK7cvYV5M5IkxBcm9Px58lIz4Msrr5Sj1Fx0jivQiIXKq7HmaKNi5yyK1ZevjqCNW7fS7Qf3LTin58dCww/7VL3Ka9S/18cUaMRS7eETE+mFy1eoc9eedPHqVVmr5cImi7sKzwciJv1G1cpUt04d2RPGYx5XtfcBXifTq5xikpRVgnuRkdS8fXs6f/GCIA9r30xVwqmFk8VQ1UqVqdeHPShtMMIUBke1usWsHE3HLfmTvbBs344YN5ZuPrjL+ouoQ/bsCWeS9PaDe9SmYwc6dfYiuDR8sqaYYTyAzvjaoGZteGc7Uir09BHMt7jsEs9NafGQKvi387dfKWzMKLpx6y7+Zth5jBm8mfieiSt8+AgqB6+0eePMnPPa7ZvUul0HIMRNQS6tIQj3BV8KxhgdWr1HTRo1UDFAO3OzhYnYhwqTZU90DFc+Bc1McMRtjkvV4mnupMlUGEXfIydOoPUbtygnCCYqjjHx+MqM2ddOXTp1osZvvaXUO5ONqtfLCMwo361PH9r3B0s/Vm95Rtpe4+nGUJOGjahN85aUFrFpwRd7azbWobkF78ffZ89Sv0GfoMPEP/iz+Htlr+LFVILkg3d45LAh9FrZVxLhkib8KDDNIWEj6Nsfdoqdrf8u6wHz5bXlyfY0Dezdh559tohi0MYck+I9dvWMZhAuJWmCiZoIhdWOdV9/TWGwUcR7ZWSamDXw6lVeAYF+RKkQp2Pe78uYZyC6JmSr6mVSCaBbxUMC7TlymLr37U2R96IUQAQlEqoP9ohUJwGs37KRhsNxEM3ucvZOCqKqMViqNqhfj3q070iBbJ9yLFZwwkCyBMhsVQ8lK0m8nXF06Ngx6tmnL925q8IGao6cfYIfwAFeQOLDVKi9TGAWlc8Yn8eZu/hzmrtgoYSU+BFBC0EsPA41uX+PnlSrUhWBnQ/mZ3duNgShRay+V8xlg2lqRuiOuusHpJwDSbrthx/ps5XLDBsU6A8PZxxAxVqEQaPUsuk71LZlC0NKGWEoG6bKTH3nr7/ShyAkgQXUXmV0qC4bvPa2rZrR/5o0xTis9iLrDNLJ6X5gCNG28D/2M7D9OAiE+NveQ2ps3ivJbosDhGOp3Isv0IQRoxWszXAz4H7g2BHq1LUrRWGBLDdlZgaTiAeRl3ruORr1ySDKDMeYhNqYmRqwdUVwjtTah6TuqtjRvagYeq/j+3TyzClN8MrLJ5w1hsqWfoHGDQ2TmJKnhrMekBdw7Phx+nDwQLqKDgLxHOcU4FtVNrO6q4u+2dBnrtihSzc6duIvy/xEvWXHDMatVqECffLRxxQC9dtWvbA84OIHHufYXyfoowH96MIVzA8eUGYE+uJ46qghg+mVcmXQe8k6Z0ZYziJq2LIN3bsLSWxwIGW/o9MEEKvFO42oJVRcf393gzjuztp8n5MQDOZbrmxZ+vnnny3xbUvCjUWCxtC77zShzm3auXw5J2f06juAft63OwG+MJkFwHBs0ewd6tS8jctx7N5gMDZ2bC1evpTmLPjSwjR1DzX2vqeHzbh+1bJE+x0DfHkAfOn2cR86AHNBCEe/CHvBGXNVkFQztF9fyT572Fey1V3Fu3xox6491Lv/AOUpNTgOOzqYTNOEBKA/zgx4OnOKZNBeOVtp4oq7iOcSY/5x7E/q2uNDegDpLaa9BJKVxLMnSRnoew/8QV16fiwSVN3L0hNPg9Dz5spFc6dNpzTBQRb7wdO56TXzu7az4+yTIWBN7Chj9q7mxlZ34Xz5AYvJ4vzR9Muq3zpkYo2aMs3iZFNQhS2MKRYpWIimTRorObhMpK7gZPu9npsz7q4R0aG6y3tpSJvE43N+dTz8DA2ofZtWSAEMdGiOSNIH1nXk+F/UttP7gi+WvcMY/tAyypYuSWFDhlBqjGOes6t1WJk5id08cuwY+ub77yXRQEtSrfKzrVsAzsqFc6cnkqRRIMK9UMG79Oyl7AzGZ0NnY59KjuzZac7UyZQxXRoLgbuErUlSu1qHvbHMjMCluqs9tdaHFDoNHj5a4lwxvArjYscEB/h6fdiV6tZ8AxzSvbQwV5yJY4bT5symz1fCA8rv0M4pPGhXkoK4x0wYR+tgR6kNkz0TIg0EEQwEx3y9ehVDv3T1duffcxJCFL9v/ET6esu3kNKcDm+8EtwbaEcL5kynAvAwytbjS2Y+g4YOo80//WwdnFUnfBfsF0Azp06hIgX4/od9OZakzt7MqmgjmApdOrdH6p8iCMcXK5s+NCp8gnjZozgcYMIX7pc8bdKnVKxQATAyz/BFh58uX79FQ0aMpD0gNImqmbQZMR0MDeXDLh/Q2/VrJ5oqo9PE6VNo6coIQ/E28AUfIWDyn4aNRFSiRIrgizs7mmxJypwxCoHi2g0a0x1O4TJJUpYW+XLnpPnoMhdoVGIkmctrTsSyGUh99eZNavRuc7qLlEMz57EnSTmE82bjxsgWuYl7jZAQbxb+/kzeUJo9eRIqR8D9tU1hSD4GoLtSS98rn/h3+foNatqiBRI5oixhBwkBQHJ36dSOGr1VX9zy/FLOA23Y+B26dPu2yeZiIo2nqhVeoaED+ouE8VS6W+xQd9eB+5xJUqs9aPgCsPd+ILkG9epT146dKJBNGRsY2sKPPeKML/UaNkE6JpJcTJKUa1zKlXkRDrZhlvQ59yQpu0CQygl4nfz7b2h0g+GVvSq5vuKwNDzQklPL/Zmwzka16mLOHRGGwb6b/A0SSgPjbtm2Lf31z1kxhXgOUkCAz/IvlKYxQ4dQQADWanjG3cURj/fDRvpqgvZckoJg/kKVSLPW7SBFDfXOGM0PxnW7Vi2pVbN3LeEVdziH63sM6T1iDG1GbIydNvpKKEkziKQ9fekyNWnRSjZRB6CZwbL7qgfc/2/WrSlqeUqyRg7TfDJ0MG3bvsvkRFKlXDXg/h+ABt5sa/I7/z53gd5t1TaBVGFTgZFp5MD+9Fq5cnAcPUxbVEPPTUlq2NOBmH7r5k3p3SbvKBXXjYvDYL/t3U89evWVOKgRwJEnEbSgQbDzXq9c1akstvca9jv8DA87q7jXb95DRMDQX0SoW5Px/QP96D3gZLM3GxGMG8DVLK3hcMLdN+7cpQaNm9F92LSaMQqDxZB9evWkmlUrg8Gq/OhHcSVfksLpsQsxuO5wAsSI3aUu5hocgJ8xaSKVLMqZLTYetCRIKyvHQpwSI27+9gcaPCJMPL/2bVJFpD8iMf2jfgPgEQ3AxFRKIC88CGgRsWo5HAhs/Bt+4iTaDnrNOqzBfWtXrVtLn06ZaZGk/ApGicIFQmkWvOABEkaBPf/rHnGisKlgWSMIOBCIsA6Oj/TszIIm8rhIUl6rL4ig5btN4YFtro6eMJqQu5Iq0XDILFqyhGbN+1w5Fk0edN/4aIpAJlimtOnEg50gPGQwBtvxWcVl5huxeSuNB66xPSmuC4k4ia4r4RI/RBsyhqShIUMG0fNIMBDStPGPsFbI5ZSHjv5JHT/ojiiAsqNkHImmxdPyJYsoR7YswmzFnDNw/fG2SQGRLZBmA8NGJ5Kk/gDO+tUrKQMyXFKU53AyAQD091mWQG0SBJntSdJVGzZS+OQp8MqpmKUAHv/y5cxDi+bPgqdVQG38NWV4I0vS3/btpQ979U8oSfFbDqSHLUYyOpsAjNwbtn5HYaiQiDIZ1yxJ8+bMSV+iqoRblEq7vod+uZakwmzxv3ffbkxtW7egYKh9UpDu5vxYcnJ+7vpNW2UPzZI0W+b0tBxdHoO5obmba41ECuXCLxbTwmUr6QEK3OPA2JiAjOiwGgVeolDEM4eDUT+DGlubhDXTmziURvTND9th046SBAmFF2rNGdOlp5XLF1MQ3qHkr7uzdHMxDm5LtiRltrUG8dFRSBmzlaSZM6ajVeCaEucyOFKybVKDq/HmRoFdVqpWA5vtoFQtc0ZBhOWr19DEqTNUjMwkSUvhcKfp4eHAf5Vyx/mo7tlAidO6bDkqr/PkX39Rsw6dFflLOEpta9qQQNqwdjXUbcYBHyT6f0cjRo2hWM55NaQ8p9iVLlWCJoaPEk+wVTK4byd7bANhOo5sUu0VZW9z82ZNYcY0l2oSMwK5I01YLe2PMNT3238RSar8OkqzKZQ/D82ZPl3Om5HyP5OtaKtFxEVxmCSahsMhuOm77yApcb8hOc2xaR67NFIIx4weTenSphVisx3XjJO8QxGbN1PY+AmS7qc983xPiWeL0uzx46BGMPFygb9NnN9YhyttwhZX3IGbmX5d2qS2L3BGpE9nz0JLFn4GzsMgTzl1l7HdSqTVsdnWRs0JHEe2RMpOI37SAOYLIIJpqNKB7vZQiPQUOk40adshaUQKZHkRatmEMSMfKyLNmfUpeKdnoLA92AJHjUDuIJszIi1SKJ94ssVWdKHu3rl7n0agcOHbnSgZYyYGItXvZyLSWV6c4jkR3thM3IPZFEZyNFdNpCNApOIt1oSHXSxdojiSUZD8wJn6jzORJgrBYCERSOQOGzchkbqbLk0IRaz4ykKkyRP6CZ9mqXTtzi2q81YD6WCvrwTqrkGkS1eupqkzZ4v6ouJd6nquWGGaN2EiCFRVQSKrM8WmyAkKBw8donY9ODZrXKIFxEth+CoUSIdISMoH6u42Gj4K5oIpl9gf3xUt/AzNRDgiKTWISVuIY3VXhy44CaAWCtp7dusMD6fqeGCrjjl7dxTsvOFgjJvgT5DwmSk8UhAF6RxPD3Ki7jLhcLuYAWFh9Dvgq/KLGK5WcyAORMqJgA3hwe3Y9j0kunuWcBCxeQuZiVTWg1eULsEZY2NApCwKJGcuaWD28KkUUXe//fFHVDGMTKTusns+YuUKyogkda4AcBSkdaUe2Pueo4/7DhykrqiyiDElMzCR8uFCm9esojQIq8Qj0XsT2luMgM0nNobJUZEVRLxm8WKoLVysyXmtptpKB44KR3O1ahgK72LhZPgGatgnUGNt1d2comEsQP4oT8ePvtu+k/oPHiJlaXp8liUZ0qahtSuWSo6x9MfxcE4PQ92VUjfM5/XqlajPx+yhNhibi9CLngtnfs2ajyqfJV+Jk0an2vHa2IG3+qvlFMLhOgDUcOUpMuScEPyNQywfoYDjDLpV8OkEKuuMNSvVX4rDc1w/2hENAZo3aky+SCn1DUpoxjjDN+eSVBPpf02SYsN+P3SYOnTrkUiSckLPZCTFv1jqOVW+ZSCZh4wk0e0sD7l5xtyFX9CCRV8YR/QZt2GD0yM5/mtIcE6/5S3cj/l1hUTjthxmW58RbNGCuZTn6ac4D0mxy2RfapwofEyZPpuWomhbS1KdgVUKEnIGis19Oe0F95745xw1b91WmJxF6OLv7ND6Ao6jXDmews8pJ+UdL9G140hLFY5H1KlSnfp07Y6eSdBk3BQqTETf/PADfcJM3TZkh0HmTJ9KxQrmMxw/pv0AH90FL/gw4NP5m9eE6XOpmzBHUDBLT2YgGZDq99H771OV115LcgrlkydJQXw3kHdaq8HbcHwAkYzzQ5hbMT/kkq+O77UUlU04n41xbZVA7tfYce5kNDaoZbuOqHI4q1QeHXTG5r3wHBxC48LlnUzMN5EPK3Ev6fZnvZcR/z04QJq/01ikmvjwkhuCURotjg6Mpxat29Pf589Y52awgTpVKlG/nj2gLrITwwd1t1Ah679FdyXxQTlRWHJwssP77dpQowb1IbGQdP8vSlIzXKTVKoiUywDeqFqdevcAoZpCRM5sU66ZvYakjXqNm4KRGen0xprZH9MCyfnt4TXmcjLOyeaMIQ5nLV++kuai+4O0DzVoVzudGFg8nzQoMB8bNopKFCuibFKj8ZknmtqTKUmlaZcvtevSnQ4gp1b6fBgXE0GOLFnpc4Q5QlBgm1KSNAqu9h0/76J+g4eJXcNRU8uFjWkN72OHFkigMOJeMUAmlqT7UF1vtkkZ8TNnSIf8zZmULnUqi7cuecJUScdN32xD6do4ECCjlbq0JO2Bcrm3kUbnZ0hSPl+1d/9PUCz/WwJJyvmwfNTg1ImfUlCAe8kCyZ17gqMPDYZrO6biFexsUw3lXn2xDA1B9Q+3EXV54X5mlb0HDqbt3FETDs8AABFOSURBVFjN9A5/sFWOkTK+ZEBeLEee7sZE0bgZk2nt+o1g+mxpKk+3wNN4Gc+nUP5QGgwY5s2ZAwwteRrREydJlT0AtQy2xLRZs6VBlQCQxQnHrCBROrVsTc2RlueHFBV3AtS2nC8aYzFCSOE1/t0CN/6gW3cUhB+3EoDBjdG3jWZPn0bFUPconJY5L+awbv16Go0wURyI2GyrcbeAls2bUxtUXQgKaC7todSyrBnAuIYKnTZd3qezV6+Izak9hJxg5Aui/QxwKoh0RBVNwvnaQNTVayJo/OTp4v/gWJ+QOtYUBxuub+9e9Fa1aspuliwl+zWaru1lF9oKRnYWgtFJ/2rWpj3GlMqhw8YoEF6wL5ix4cezK1FZRcXD27ZvB5MdDAZv9czrNXMMtlPbNnT51i0aiBS8/SiOUE4mFUDh/+pW4f74W/FiRSlscH/KmCGDtUaZ4efhHiqnqArB2Pfu/ldtUoObXYIh/07zd5G/a5WkuiwoNUIkE1AQXbLksy4Zrb0beERpGyIg9KHw6bNo5erVCfr56OcKF8hDM6dMRW9eIIuBSAz8O1DJm7RqTVdvo2jc5uI2KTy/5woVVM2tkzRL9RA3px4z7lNas+lrtCphQrM2/OEMrKKF8tPsqdNhY5q8keyxvHoN8GsjsT/2NRscRmVGwQE2PXw0FYEtyw6kh3c5KVWzeanVR875sOzYInrlhTI0GO1C03IXQkdANEz/yOgoVMF0oqOnzlpHZh6J71MFBFGP7l3pS2QfcazZ3LfJcjPuZUWkJuLkPbt1QVKF6oDgiafZERyfQEmqgsP3wfE/nTyZIjZuFUmly8pYGnD6VDY0gJo1YSxlQV8ac7mVJiRXMTaW1pFQcxchI2XO56gPFD+UVTLozemGSowG9epJQJwTAhjZ9XzGT59JK9D8WoeRzJInDfrnTETe5zMoX+KAPR/ToJ91NTf+XtLTIOGXo6HWJBQUSK4K20rot2O1M2No2MABVKVCRQuRmjWLEeitu2HzJlW+ZUgM9SxR9uwZaCoqa3Jkzqo85Xbs+4cpSVli1a1dG83DI+RgZtUcQxfEs1zjzhY+9BJU33FDhwqP0TZhAvhxTi2+5JK+NRs20Bg0XNMXa11cURPL6ZGmvTVrPnqf/RA2a9robUjcdpbAWUpED54ISZqIqEQBUT2J/gTXa9u5i0EU1o4GYotBhQtNn04yP0JDQy0qoEMiNca1tr0gWr1hHXJhJ4NYmThtiRSZPLBnvpiPfrLw8HHeqyZSJeHi6PiZc9QG3Ju7SOhx9cbGIUCd4+msFD5oOBXKndfqdNDE4oaKuQWlV0PhsLqPeyV5g2PhgkJKPQzNk4vmIGc3BPZlgKlOUc+Bvbyt27UXR4mZSPnhOP8Yyp0lGw1GYnqJYvCWI+/XHYeIRaRp77rpMxFSY46O1N1AEM80NO/as3sfzZkPBw7EmMUmlNmq7hQszZqhBU23Ll0S1OZa5mp4ZHmFd9Fu539t2+Ncl8uyn/4gYN6XaBAph6NUep9mxIqU5T6YLK3+1xhOpqZI7Ocm3cyMUybE90QQaaJkBpPOwJs2DQ2AF325FB447nTDhGJspdiUPpKa1RQevPp1alFquO7VeR06LKx1JDzD/8ezLJ2u3L1Hcz9fROvXb5DmX3pIeTVzXPwvABQxqH9fqlGxskN1lbNdFiz+At3qv5DYKnd3N6tP/HMIei+1hNreDPPjuQVoh43ob8a8xJbk+TEV+tD1q7dQe7iSlqxaKUnZ7EzRl4oFqp46o4YMpYply5sglvBHjuNORPH5CtinnM6outUZF97JkoqlU2M0Bm/euKE4ajg1TzVbtsJOpDjb8Qw/nt+Nm/Q9ip/v4qCjIkWK4QiGUoY329A9LS9xEoIBfBdORYNrpNgtgDYzd9HnslbwSyESloD64p1vWL8+fdChg+H1tb9kNmF2oIFbn08Gwluv1qDxRYYz69RcggJ4pA1ORV0RYqn1Ok4IMM1bsAAxU/7j6dNn6Rc4pU6dOk1ZocE1erMezooBrJw0RDPP8MlTd01qCbvm7yPhuS+A/uteNJcSLqiOcpCQjAnoOdCPtlXz/9Grr1ZAB7hUqtWnQF0RHbvZr1+7QRuRzbR4+Vd0Ha0qzZdVBcLGArnr1qpBH8OOCTRCFfZCPdx97wFipVwmtR9tMeSAKBu1it/BxJAne1Zq1LAh1aheTU7tMluCbCPzUm6ipjUiYj0tXvqVEAAjAatxgvoG82CHhy/e06RhPfoA/ZO4i56jJAM+Pew6bOb3OnxAF+B0klofG+eHhGdwXzp0kWj0diN64/U3UJWRzXCYSMdflaYPeB9EfHgl1O8f4KSJxr7wKWPcH7de7TeoJ0r0lBfUJIHwm+NGZGBwOFahSIFCoo6vWLuWJsFBJ90CheEZ47AWAWDxXr9Vty5164zMJMPbai+8FRUXQxNgo69aCwYscDOp0VqdFickm00o0O/Tj6pUrGhoSpo3IYwFc2vHTz/JQVH70Q5W8niF0OPpBZyDM35MOKUKQjWR1tDsqNNPvONIExBLvus4Ia3Hx33pOHJXY4xyH/7eTKR6w4KCguT0r7xo85kGYRB2vFy/eUNqVE+dOmU5ycwcOjETK2fmvFiiBIUNHShhFOeXUiL/PnNeQjKXrl9JwKz1s4pXKHEZgsSIAvnyUyi6n6dFBhBv5I07t4nzcrkncBSIntUz6SXMFILHTI0iRMJUwiFJXD+aKoiDDE4cP1g7D3HoKPo49e2HQ5mUk8vWcSKnl4lQVy0ls2TKTE+jpQdL1gA4me7gMKc/EQ7jFp58FoslZiEIyl0SY+mzOTPR6zjUkMJ65c6OmVAtPYvBecXri4HUWrF2DU2ZMV1Vs2ihz+uXxAK13y0QJ2/fqpXFfEi8PwzPe9S730D6HY3mLG1MbW60nAyAGedCo/GMsM2D0V+Ijz+8CS/wRXSV55PlOMEhVnKxTRIBWsCIAYOoOnwB7lxPtiQ1EpK5rOoftOTv3PVDugoA8v5JRbzATalYIk2MjuvSeR2bLqqb4RCJ576znPLF7FMOVjI7KpQHluv7+Gi/MegIl4r7ExlqqDMHAs+A6w/PoNC6U3c0PL5xQzWhFtXVGtpQrR+VSitHGoq2pZwe8h9D1xLJhbWplhyKCag8V6XClyv9PA1D4zSeH69dH2RkNzyAMeS4Czy/BWeNcK2sWKeiUqq5qUmpOWjTI0HxAtbCISdW1cVhZpw+pkHP6wrAfMePCqMXS5YU29gCL4zqrKXngklTQKSFZE48Ka4SWbMuApJwmqT4iRZhmSOSHUSLiEf/3XZoQ9pQmmMnquaR/UA8FATWHYz9AI4O5BPzhN+ZtDAFctUalfdJGmnrfraspXHqimEe6P7JAis8F+UfTW3faU6dWrS2m7hv1rp4/9YhBDPSqIKxOseMBPsxSLB/3KtgnNmkZi7F9/2Des/Bw8Po8InjKkskgTHpDk9zcA82m5HrjarVqEvHdjh4COqyQ5+/4/ccPHYSdYNhdPr8OVV87CB479FMxatMKCrwp7fQGLpT25YUAOeG9nS6OxZLq23bf6aR48bRLbSmTDHYsY0MSTpvJtuX+QW5rZczmzQeNinUXYSQWKHnYgRt926FvRuGed5HWIVVYT9uXm4IMmZKwfCUL/tiIWXBmTiO9AjWFq7dvCO9obb/slOFoVICX7CvOKSQxg4Lo0plX3YJfob7BiTYj+KCEXNBBsbhKphp4Uiwh3aiT2N1OWAK3GCL2x6XqjmTWrxPt5GSN27SJNq67Tv08jGdvmySDO54KcUWEzsiDt0HA+kjJDPUqFJFNt18CJInYQiWBNxnZwRCL99v/0kAr5mQp4FwEXBYEx/Ikyl9WplfxfKvqDKzJHoeGWGOQaUehJ4/p85ccMub62g/dJiI81srV6xAA/v1pmBpHZLQJr0MJ1M99LqNBGxUxwWt9RDNmziRniuiJKmfUcPL62ZJyPm4Q0eGSWcEZB1b5io2IEyCBbOn41Q1dHdnZcTGztbEzuoSaznLEQOfjkZzD1Azas+OdSckZsWDOKpVpSL169UbTixrtZSjMbhA42sc5DUMhREsqfVp88xEysLhNgllb77IquGUxce2ntRdSSoMhL2L3M4Ckm/nrl3wCi6nQ3Bm2BvD5BxUWorZs2dwo/Tp01PtWjWpYb1alD1zFjl2PbkXSwWu6P8enfq+WLIMWUx/inPB9jJPJ/G3CvE4KaJOzRqI3zWgLOkzGPHM5CXGswf1Lk66Xr5mPa1C8fpVHHeQaG42E7IHO14Se6ob1KxDHdq2otTB3HaTvaEJJSk34Xob/aDOXrpkOdOG3xcAT/y6L79Eul5qsYV1bwL+jlV0PkZyJzy1w0ePolt37pum6CMpoSuXLJaqHnd2jNd8EeVoS1evw6HTX8v5NklZc7FixZD3/BZVR49cjs37gGO6SlVhNfsPHL/4PgpGOBpgkebY30b169JHcIQpScojubOa5GKolanpkVJUkmpuZRiUEprYv/93eETXgmh30637qtOfnLSNjBHu4xOF7n8B+AwwvC9sk+bP/TTVfqO6eDJTI5tFVEeT/egOZ9WSztG9TITc/3bPnr20Bg6RnbsPELfmYMcMz0FsQ7bxwFF111IeiyVl0QK5cXBSFaoFBqLPjkmJOdnCj+O7O3b8BDtwA/rCHpYDmRkWMZgEO1xkbkAdDTtesy8OsM2VOwdVQPPvenXqUe6s2bQLNZFnW0nbeNq+YzsNHTYCCSqwKY00ys7vtaAmb8OuFFvXJGFNUpE1k/3791OfQWHo4n9XwQ59izq2aUnvoGk2j6X3zdV+aJyJRCyVPfwRGzaj8fhpSyF2lFQ4KTudSUU66QMG7Igs90JxerthA3r++VKK4fM/B95c27+LNAdc+8Jxt3PP7+JoY7imRy7xgplTKCuOTTTDwNU6nGma7s7poaq7tpPQag1/3kfFx4Ejx+Ah/UtOAbt26yZxkyoGaBBOH8uSISPlyxdKxYoWpTw5n1ZVNAagH0aDaIvKhffzz9yK89ixE3Tk6FE6h/nxaeDMQHjD0uLQII6/5cVp2c/h+MBcCNdo9Uqrtu5sgKcbrO9n9ZJDUvv3/U7HT5yA1LtA9+B4iYTE5Tgvw45PWQsF/AoWDKVMfHCuQYCcLulqbryW4ydOSp0rn7RdGs6vclD1mMDswV7PS2eZnYIvYtnyFRKiqvByWapRtZIwk6Q0ReexmXmyEn3j1h3avWcPHT16jM5fvgRGcEfGDEFoJUf2p6gocKUUHIlZUTTBWoLZD+Bqzebv5UQBzP0rHPx0AodLZ8yYkerXrSMN5CSUaJP/7a655ij05s7czPLYpST1SN31QNJLAN64nwlVKxKKa3swUArdqn0WRiTGXGejsolS6D1JHcYMFw07PadHo4QldeZJf87Vmi3BA3mF1UCxlURJn8G/8+QjlaSJOIaxZnPlvTiBtXoimj//njDly1MJZM9R4ZJ7GZusAkYqwUKrYEaU3Pi7fUeIy/HtOE88ekbNSM2BVX8NN/6UcIXRcEspe4Yd6bwJl/n9LDUtqYmGBWbZFxtTI9F+yFyMlD69l66ecaWOGoTnfM2GCWmHq7sD20SS7mGsIxn7rlnEvyZJ/x0e5X2rFwKPPwT+XUmaDK7yqOwAd9/zSKT7Ywov79ofUn2vSbswsxKvJH38Gat3hv/PIOCVpE5sIU8khCf3JtfL5650f1Tv8a7dK0n/n/FN73K9EEgIAa8k9UpSu3FTT6SjJ/c+Kun+qN7zKNfutnfXnUm5ukfHC1SKlhFK4AR3m0wWT/JwXamAruaU3MyQhz3+o0K6pLzHu/b/urprqWQAFUpVL5etcf6ISlnAER7SdiPAprLRq/J4IeCFgIJAktRdL/C8EPBC4N+DgMsQzL83Ne+bvRDwQoAh8H+3j+wOuJi5PgAAAABJRU5ErkJggg==;" vertex="1" parent="1">
          <mxGeometry x="177.07999999999998" y="95" width="35.85" height="10" as="geometry" />
        </mxCell>
        <mxCell id="LNzFgeBaJYBjP-Y_PhbM-9" value="" style="shape=image;verticalLabelPosition=bottom;labelBackgroundColor=default;verticalAlign=top;aspect=fixed;imageAspect=0;image=data:image/png,iVBORw0KGgoAAAANSUhEUgAAAFgAAABPCAYAAABvRgIXAAAYo0lEQVR4Xu1cCVyN6Rd+7r1t2stSyVLKEiNLRkp2lT07JbKvQ4RExjLIvoQJYx8ZW5YyScgSUxMpWbNUlkj7vty6y/+83y1mMW5kfr9r/r38pPst9/ue93zPOec55/14Uhqowqji4VX45n/vUB6P98VOzvuvAMxZCf3DzIXPl7L/olhYghvXb6CoqAjtrKxgbFwPlYGuGuA/2Fd6ejri7sbhwZNEvMktQk4ZD+q0vVPL+sgTqqBW3QYoERYj8kYYWpnVw5jRY+RaZzXAzFjJRC+GXcZ0v1NQdZwIFQNTiJXVyHL5kNB2UfhxtC9NwJC+vVFDU5M+5eHy+UA4D+4DS8uWHwW5GmCCRyKVYPwPfrhZ1w6lDyJQw8YJ0DAAo08x/cMoQqkoC7wrP6OrvhgODr2hJBDg5OGf8NOPW6oBlvscS8WwnbMZWY6zoSoSofhWCPjqulBtYY0yJRWy8Pe+W+ltAlSvHsAAKxMkJ77A/O/Go3Hjxv/4FdUWTNAIiVctPXaA3282+ASmQMKDKPs5Sm+GQL29AwQauihLTkJhcjyQkQJxXg5KXsZgYj97dLNpDXv7ntUAf8yKnz9PhMOuKAg6DSd25RHIsr2lECJj6xQIS0Vk0Trga9aClK8OCU8CJZqAPvXVsXDONDSzaFYN8McAzs/PRUf3DZAO9oaEr0SOTYYwA7vk6CpkiVXAI56WfcaA50Hp+S3YGSnh9MkT1Rwsj4MZx8Y/fIy5Ow4jqflA8E0sIeVRDEE4Z/vNRKGOKQEslgFMn4sJYIMXNxB8YDsam5tVAywP4IrtQkom3GcvwLksZegOXQioa+H1ting6TWhaEJmwSy0UC7Lx3QrAyz1dKdfP55uyNte2WvjvvprzuRiY2OxxXcnTCwsUc+4Lo79egHJ9W2QcfsCBPqNIMpPQ13KOmybN4BD+5bo19sRqioqcvGpBpggSkhMxAhnVyxesRFq2jU50J4+vof46GuoQb+3a/UNbKytUK8+pcfE0Xy5sL7foRpgwmLZihVQ1jLEt9ZdOC9WnJ+NlKQHmDxxLGkRnwLn35GvBpgwcRs3DkPd3KGmqk7OjYcn925h2rjhECgpfYKtfnjXaoAJl6nTp2Og6ywIeHwCGHhy/zamug2DknI1wB+1MBZ+3b9/H1euXkVc3F2kvE5FSYkQqqqqMDSqA3PzRmjXzgpJL19CvWYD+qwhZ8FCYRH0lUthZ2tdbcEfQiAnJxt79+9DQEAgtPVqw+Kblqjf0BR6+rWhpKQMiViMvPwcJL96ifh7sbh3/w5MzZvB2XUiGpg24bTghPgYDO7bDYZ16lQJ5P8cRZw4GYDlK9aii70jevUeCNUaGlysKhNsBH8Ai8W1lJPRNrFIiOhbvyPoxHES0g0xevJMaGrWRFjoMSyeOxtaWpqfDfJ/CuAVPmsQcuEy3OcvgV5NsjxGqOVp78fTLS6Mp11FuHbpPH49fRwTvpsHE1MTnDvpj3U+y6Gtrf1ZIP9nAN64cQPOX4mA+4LlUCEaoGLPZwBCVk04Z6SlwHf1MjgMGArzZk1x0n8P/Pfv+SyQ/xMAh4eHw8NzEZat3Q4VlRoya6zSEJMzLMbaFV7o3Xcw1NQ1EHn5Vxzx/xkq5CA/ZXz1AIskEnTp3AluUz1hQo5KRgtVHVToJO2huKCA9IZZmPv9Kly5HALT2jpYsmTxJ538qwc4MPhX7PzpZ8zxWkaGS3FrlRoH/ogdnYhAjn9wD4FHD8B9iQ+WzJqOXTs3w9q68uHbVw/wgMED0dvJDWZNLWS8+8UALgebHogNq73RsXN3FBcJcfX8CYRfuUJUJF/o4Vzn19MXUYHcewrIzs6GXbfu2LLzFwrD2Oef49jkP/H37lIId/o0TeRIXAg+jokuQ+Di4iL/wK8BYBa/ZmZlcL0K9esawKRBQ/DLrSI0NBS7fj6GKTO9SCut1P1+1k5iUSk8prlh3Ix5yKZruRcZirNnz1bKOhXQglknjQRvXqcg6FIEIt+WIVqoCYGeIUoSYtFc/ALDbSzRt18f+PsfRkJyFnoPGCFrbvi3Bj0cc6eOhsuE70gAEuDgzi24fi0U+rp6cr9R4QDOy8/DotW+uMQzgZKVI6RqugS4gAu8eAS8srQMJWHHoBfjD0f77oCKLmzsHGlrecVB7i1/xg705Ys9JqPXQGdoaGkjNOgElixyR9dOJG/KGQoF8Ks3b7Bzzz7sOHcbGo0todPVFVJDU7JOCfjUryB69BsEAkoijE1Q88wadLMkAVxVDx3sHP5VgNmzseC7sXAaORbqmtqIvH4Jw/v0gIurszx8K0Ujck9S4W+rWjLyWbsFzVp1wIS1u8AzNAMvIwE1W3SBwLg+eDmZ4LXqTB03usS3SqgbMA99rczx4m0OHPpRuf1fowgGLw9TRg/ENI9FFB8LcDsqHPa2Vpg0eaJcbBTKgucv/AE9+w3FiAUU0zagyi79US7Kg9Hg6ZDoG1PhkbtXKBMbGJ9egNnDemG3P3n1GZ7vehnk3vEn7yBBevpbrPSeh7HTPLjvv3H1AkYNcsTIkV+ZBc+a64V+Q0ZjgtcPyDduxd0Mn3oWjFzmQKxTBwKiCoFIjOLrh9GH9xQrv18Em86dscnPn2vU++JhGtN/eGIEnzyOZ4kJ6NKjL12SFEHH92HDmh/QwbqD3OlSKAue5TEf9oOcERF+A/tDIlBWrwkk+cWo6+oBiU4tSOJCYXT/HBa49kevXr24mxs3cQJaWzvAoiVNyJdONFjzn1gC96kuGDJyDHT1Dblo5cCPaxAdHQmNGqy59eNDoQB++PAhvBYvg7VtD5QRWGcvhOFlqRJqO5CzizqNXk10sXrlD38ql9+9excz53jBe+WGD6bKvIp+BsJBKv2URISlylJcOheI6yQmDRw+ipvAly+eoDj9Ofbu3VspB6ZQALOkgjV/XLp4GYEh5/EmLZPKONSTQF01TSkVlopF8Jrp9rdKr9dCL6jqNaB0tkd5qkxNTwSOQMCDprIIc+d6wqpdewqzyBlSksL6eyUsrKP/y/D/u0DEOnvSU5NJcHeH64Tp0NLRp/0E+OXnbfjJd32l9QiFA7jigWONSsw6ff0OwKLVt8z+UJiTgzlTRlDpR9a7UDGKi4sxnByO88Q5qFWLHmPGlCSea6AAth3aYeu27ejQ0RaXLl9HK5uuaGZiiDGjXNCYJm3AUDfSeXX/BnJxUQ4Wk5LWsk0HWFrZcJnii2fxEOYlY++e3fKY4d12hQWYXSELkGJiYnAp6jF3wdnkzZd7Toeq2t812eTkZExzn48ZHl5k4ap49uwRxg2jjnQ1tXc3u3mrH1o0bwb7Ht3AOnmMjY1x8HAAWtn2JACZFcsE94KCbPgs8URtIxN07dmba/YTiUtx8ZQ/Tgccg74+s+bKDYUGmN3Cm7QMnDp/A4UFJdTImwPP2ZPoyf5jbe39jd6KjsbeQycw2HkcHsffxyin7tDXY2BQwx45q3le3hjr6opW1KlTMXz9foKFFWVkhC3TgNPfvoHPskVo2twS1p27ccAzFrl2/hSWLZiNFuRMb96MRlp6GrW1CmHa0AS2NtZQ/gd1TaEBllJYdjggCLoGjRBx/RoGO9pSmb0N3e4/O6vtfruoYbo2ie9NcPdmGObMmEa787Bugy9qG5ujUV09smBZiishsX7JqvWws3fiGq8TKRRbtXQuuvXojxYcLTGaZppwHNpbmlMfcHPEv0hBA5OmEFDPhJiu78m9OEReOY9FCzxo4lgk8+eh0ADHUi/D/cRU1KFH9ferQVhCNyHvgkWUUs8imnByHo88yv7u3okmlPiwIIusVbsuYqOuoqtNW2hqaXELX3QpYzRsYIJH9+Owbe1SqsM5w9SsaTlBkaNLewvVUsoWe/dCrlAZqrQIRsBljayNlRbJsIo1VaWP7PWD+4xJsGrbhq7xvQHIu97KEY1sry/aXckiivVb/NDGpjseUO9Cx1Zm+LZ95SoJUdExuHE7Hi1btaWLYnTCuLVCbZMiJeUNCmi9W0MTEyiTtvE84TE2rVmO/iPdoE/VaL6EAUROtSAHpdmvMeO7qbga8QCZ+YV4kPQSd0pVoU7RTXtRMrrZtqdohb6DKGgV8XZDO3t4DrVHy29alD8BX6KE9S8AfIms61VOGYxpbdqFwMOUOa38lMnGyo3b0M6uJ4H1Yb4uv3taYSTCltU/wLabAxU01bhMjVldUWE+SgtSMXLIAKw4Fo547cYQ1G0GMSUbIlDHO9P4CrJgftsf0wYysYmPhKSn2Bp0Dd8P7gTnYU7ceRTWgpf84INODoM4mfdq8FH4rFz+SQBv3rEXFm07lgMse6Q/FO/GxEZzrVQNyFmpqbByP49oIQVPH0RhufciHPQ/Cu+ACCjr1ISahQ1U23SkZQbUJEiAKr1JgDDmHIabqqBzx64cyAs8Z2Kh+zQMHzpIcS1YKBTiu7kLMXzUZGRlZ+Llg0jMnz+v0gCzUtLmHftg26M3cjOzaHWmEFokM2pp6fxJl2eFkdTUFBgYGHDnZrRUUJCLTAJuPEmRAgEfh4+cwJyAWIhVqUOoLA+gBTE6xo2gXtcYpbVpUoybQu/8Vni7OnGZ4k7fVXBzHgwnJ1prxzlJBaQIFqMeDQxFd2p9yspOw31aurqqkhYsIS6cM3cBOvZywiOqCJtQr5mRkTHneP6qaLJ7l1KWWAFCPvUFq0iL0deh+7vc7lxIMMb4XYJEi7QQ2l+J6JwvKoLhOG+OKhhblwRtgt/YPrRdgFNHDqJP1w4YOHCg4gIcGBhI0UMK2lHWxdSsLcu9EXjq2AcTjD+aNVuoPZcaUIxNLVBYVAjrTt2gTrzKoggWz75rmXhXPyW+JdTzcjO57ku+pAgdrCzRya4jNNRlQk7s7Vg4uvtAQvKpiABUloghpe5Lo4lLaHKUuXMKA9Zgx+RBBDAfv548gu42bTBokAJTxC+//IIX6UVoa92ZWy189WIICjKSsWnTOpnH/stgj3ZcXByJPvPQo+8Q8uhSilVNUY/CLzZEZSL8HnGVHJlswSCfrJCl1zVq1EBSwjNE/34DHWztaAJVwASnq5dCMNHNBePGunHWHRQUDI81vsip1RRSDSPwhQUwmMAaUKgPI+EO1EM2U/y8lGt6Oea/C/3sOyu2BZ85cwYRMY/QszeBxSWqEpw+cQRPHt7EsCFD0Ly5BfR0dIkvCxD/5DFCQi4gN68EI9wmoG5Dc+z2XYspszzpKB5Ky4rx8FY4NHSM0LgFW7hNnxFAic+eoTn9fjboJPpSDxr1tKKU+FVJmUUINKmh55D8/AE2bViHOtTCWpCfjxOnTuPgmYt4mCFEzQ72aM3LgolyDjKyyzB8zCTOj25a640VixdyfccKy8GvXr2Cy9gptChlC7cgm8Wx7GdubhZuRkbgyeNHKCK+1NDQ5Pp6v7VuT0lEPS5IYI/pxhWLMd97BddMffnCGWhRj0g7uz7U+KPKhVfpb57idUoaWlt1wG83rhCV9IS0tBjHf/aDjU0HqGgbwqi+GbJSknH8wDYcPHgAOjo67xxhLL3yoJa+HnSoqjxi1BhMmrEIWiQYicVllMqPw60b4VAr10AU0smxO5k0dSrU9eqjz0DiMkoWZGLM+1HxG0enLIlgHox+pqS+pkqHJzZs3o0aGhoIDz3JdbCPmTSbwBVwpSVJ8Sv89ls07HoOxlNSyFj2x9JmNRKRrocF0QS8JYucTM3YZniZ9AQPYsKxcd36P8mkt27ewgqf9eg1eBTMG7PMD7hy4Rx4pZnkkFe+c5wKC3B+Xh5JkCOgpW8A57Gkx1KxU1YWooWuTMTlMjRGe7K3OqRR7BoafBri4lwIi4vQxXEomrZsjYBDu3DvwV0sW7ONy+qERcXQq1GEqKgoaNdtioYNzCARlXFRsoRoIo44WFJaSpXjMMymEhbVs7H3x7Xo3bMrTYSY9IpExN65y/UfD3UmqVOvJh2rhLdvkrB+1UKEhYRwlFIxFBZgdoEsHt6+fTtJiodh3tQSzSn1NaxjxKW3hYV5eEsx7IvnCXj+/AmaWzTGpPETYf1te/hu3ozMQik6O/TH7m3rkJjwAKs37+MsOCczE7W0StGiSTP0HzoCsxcsJXqpz7UGsJDtzp1YDptr1K7q7DoBhobGuBsTRfLmLdh07EaxtDbJmAYQ0Ho5LoSgv7G0/dTR/di1zRetW7X+85OmiHEwu8K0tDQcO3Ycj588A5+MlYVgbFlVZkYGF6NqkuhiQpECE1e6daNwjOiggjaOHDmCq1F3MIhky8jwMBzctRW7D53hLE1CdPDozmXM/m4GLl68APd5CzFy9EQS5LughOTHh/GPGOfQG01OY/DQUTAj4ScrIxWXL4ViiPNYjsPZsloBJRWvkhIo7t0DPV1NrF+7luJtoz+By7GXIgIcEfEbVq5ej55OzmhCllaYl0svJLqGW5GX4DV3DgYOoCzpIxceFBSE0+evYLjbFBRQjDth5CDs2H8ctesYcyRzaM8G+PluhAZN0lN65Ddv8cWN3yKgW9MAuqQfq1Mx8xYVNX1/PMA1dOfnZdN6jWD0dRqKl/Tqg4f3Y5CWkgIzE2M4jxxGws4/v1ZG4QBmlusyeizmePtAWbmickEmTIBm56TCd+1ytGvZAj4+Kzkr/tDYsmULXqTmw9FpOMfRs8aNgH3vfhg0zI3j2udP7+PJ3SisXePzLq5mju7mzZuIjIzEth27aBFNf4yi0IvN44vEp7j9+0U0MTWHkaEB2rRtzb3lpDKrQBUO4EXe3qjd8BuqHLRFcUkRJ1WamTWGDjkVFp+y1zYEBx4jj30WbqNGYrTraNQhLYHdiJQiAea8pkyfie9XboQ2WSTjjbVL55PVUX1v12GyUnYeqhaHBCKHNAf32e6woHUYHMDRUSTMb4RESR0zZy0Bj7QfNiHhFBN7zh5PoRqr3bFPKl+dViiAWajU3aEXFi3fDBE5stCAA1js5cE5u6jYB9DQY5qCjGmzc3MQfOoIddmE0QSYkGXVQcLjJAjJ00+YNQdm5tSQzSI32n/vTl8YG+ginrYzp8aaCbnudVofF3B0L1IoLGNlqIaNGtHSr0GwbNu+vMQvRVlJAbLfPoOr8/APPi3yPlQ4gB379IfnkvUQ0SLswCO7sHX9OqIKJU7pCo+4iXyxKlQYdRAgDGpWPc7KSqdFK0XQpeYUDQ0tooUKC2N7iHFgx0aMHz2Ce6SDL16Fw0AXSpfZ81CKh0+TICLn1ry5OZT5TA9mFWlZgCCWiPAk7jZmTnIhB8ukzE8fCgfwcBdXjJ7oQaUZNbykNPjZwxgspRYpdRJfGMhh4RHILeFTn0ItGWVwr3phMbEMTNnP8niiPAtcMHM8ztLat3r16uFRfDz2HTmDkloNcTtbCXkNW0GqrAG1y3thW1sF9j17cgnKmzfJKEx/gXEkW7LfP3coFMAMwPMXQnH01HmMGjuZUyEy3r7G71eCsdV3E3ePbJ8r1yNxK+Y+2ljblYPJLPavuitLr6W0qPAE0pOf4bD/QY4uzgSfw9Lr2ZDaDSbhXJmrq5GQSScm2TLzBSSXD8M49xmWeExFR+qlqIwj+xj4Cgcw82KeVF4XCdTh0J/EHpEEfhuXIehMwLv7YF2Xz548hS9VLWrTAu627TtAmUIrQXl5iLmhosJsnPDfj9TXiTh65DA1pNTijvc7FICflGwgSqR416g+JIaNKKZl8yMmOVKFzkHTmv0GvGv+GNlMG5PHOZPuUPk+iL+CrXgA0xUyZ7dn7z4cPxMMJbJCr3mz0bVr178ZCqOHkJBz2LV7P14kv4ZxfRPiYA1kpGfQas1UTKcXakyYNIE4/D1/Hj1zDhsEnVEsUIE4MQ7ShHtQbd0DEqo4y1JxihEIcNHTmygIO4S22iU441+5PrQPWbJCAlxxoRVv3JN3kWy/pKQkTstlEYehoSHJhe24Wttfx82YOEyJ10epngG3MkmJyZS/n4a0mKTKTgMgoOaW/HNHkUdWDM066KKeioDdvu8W3nwqF8u79k853xct23/KF3/KvhKKDMYs2oBYiyGQ1DHl6EFCaa9ScRZyw45C+OopSrWZA2Uv5xCjt14hDm1bUw1wZUFm/M00B58123G8oA5UOw+DmHrZWCzCT4xG5pWTEKpqc1qygFS1ESZC/LiOyY8fKf9/5Mv/7yxYhgWDmYcLoecxz+84pEOWQUSCPT8xhgA+hTIVTUhT7sOpWR2sW77oT/JjZSeyYr//U4Dfw/Q2NRXf+2zCtRqWUK1rhrSLv8BY9Bar3cfB3rHXZ1NDNcB/MEVKiBEWdg3eq7fAsas1vDzmconNlxj/9xZcASIV4yl9ZuIF0y8qL+bIm4RqgOUhVMXt1QBXEUB5h1cDLA+hKm6vBriKAMo7vBpgeQhVcXs1wFUEUN7h1QDLQ6iK26sBriKA8g6vBlgeQlXc/iUB/h8lSVO5zYwZlgAAAABJRU5ErkJggg==;" vertex="1" parent="1">
          <mxGeometry x="183.86" y="115" width="22.28" height="20" as="geometry" />
        </mxCell>
        <mxCell id="LNzFgeBaJYBjP-Y_PhbM-10" value="" style="shape=image;verticalLabelPosition=bottom;labelBackgroundColor=default;verticalAlign=top;aspect=fixed;imageAspect=0;image=data:image/png,iVBORw0KGgoAAAANSUhEUgAAAQAAAAA9CAYAAABC4behAAAgAElEQVR4Xu2dB4CcZZ3/f9PLltmebDopECAFIaD0LqKC/j0PPb07xYoNEUUBUVFABb2znuXs5dSznqj03gIC0hPSe9neZmanz//zfd6ZZLNpGyAU3VeXnczOvO9TfvX7K4+vzGXj1/gKjK/AP+QK+EYKgD3JAp/PZ8/m71rdvd1j/DN7XuOxrM/4Gu9Znz0X6/Nc3GMse/lMPqOx7cs1ZgGwLzcd/+z4CoyvwAuzAuMC4IVZ9/Gnjq/Ai2IFxgXAi2IbxgcxvgIvzAqMC4AXZt3Hnzq+Ai+KFRgXAC+KbRgfxPgKvDArMC4AXph1H3/q+Aq8KFbghRcAisLslFpAaKLE+/wq+8pW8hWtbEULlMO85YUtyv4SHym7f/kt8KJYzPFBjK/AS20F9psA2Fvsc9vfXRh2VCy2BFsXK3kA1b8hCMzvQxiYFSrygY+4XIEYAmRP0cy9jUUj+Ef9zD/qvJ/PPX8xr/F+EwBjlYQe65cdm4uJ9bvAzzD63dPu5W0/0v/+sh8h4EM+eD+6omN92PjnxldgfAV2WIEXXABIi1f1f6FUND9a3lcqmK+YNQsEzFfm3z6/Ew/lMu/7ZPgjGPiPzx/gPf7uHxcB43Q9vgLPZAVeFAJAQkCX8+ox5/1lGDvvwQAy94u4+PqdlKWA9o/zupa/RfgEnxzHAJ7Jzo9/Z3wFpFafv1Rgh/YJvdtu61vewXgFGD6F5t+KJFjRkbJlnUlblgpabzJnA5mcDfOVnD9oddmiNYdC1hyPWHutz2ZPiNj0ppjNrfdZnRMISA3uX/AFHCy4Ey4gsHEfJzxOJeMr8Pe8As+jAECfl/kpwZqY7fA8jFqyDEy5eqhoN64astvX5a2jFMOpj1up5Jn6DgVQYRHsHOCz0vkF/h2A2Wt9aQsXBm1aNGtnHNhqp06NWytcH9D9EQL+KrNvwxh5vl/uxPg1vgLjK6AVeN4EgMx5hfv8xWGnmof8cVsP2vf71T1214pOGyo2IQwSsHvUuQKFMP6+2L4SJdDrAlZC0RfkNmj4ctGChZwFeS8XDFg4k7GFiby9c36dHdOY4T4wuj/i7bK7R9DT/vtW/DROJeMr8He9As+rACiWyhbyZfDlg/booM9+8mCnPZWMWDpUgwuAAQ+DCuQLYylEBAwACgYQBn6BfzB8NogYCIbh56AVAAb4i1PooWLGMgCB/kLJDvT12rkLa7AGIrgF2AvlnAcm4CCUAQ3HPYC/a3oen9w+rsDzJgAM5i9hAXTBsTesHbRfPrTJesKTLeercyZ+IQDAVxq2mG/I6gopmxWLW3tLjTXWBK02BMvz3RzMPjBcsC39SVvT7bPOYtxygRhWQNLS/jpehy2YL1lzcdDev6jGTp4UwiUoWJCoAmICwYEAGPcA9pFExj/+97wC+00A7JT8ABMWCgW7JxWyL927ydaVEjBsneXDaHH8/ZpC1ppSPTavvmyvO7Ld5jcFLSyLgO9FZM1jBXhYgN9S2PEbsn67aUW/3fz4ZtvcOIfcgIBj8XI+ZzHwhTmFTfbhU2fa3JqANcgKEOggaHA3AuDFnKyxOwJ8Lsb8XNyj6kvurVnUP+qzXszz3g8CQA530TKY6bK8oy5dB9+9lAXlD9hlf83bw91m4QBaH5btiISslpj/wak19sY5DXbqIRMM3reYc9aVDKTIgfMHvJRhqXCYPcv907y7cbBg33ysxx4ZCFinv96CAaIFuRQRgyE7dkatvXdRvU0rZxEgJaIJMZc0tDMMIAuBLEPncHiQgT7DMLznbstU0GtJkKoUUQKT8y/4vPfpsV16XvVSQhOWie5aebAXL5Go8+5dvbx0KV36y3ZJ5mVJaKiKgugfFazDCUyXQVH5nvfKy6MQGOt90f3VfaU6vx1nsX081YBtZQ2cZcV9RoKtytPgZ/Tlxjcy20upnpqDL7TTZ3f5hosLkxuCqydhr33xW45byiXcORW8Om+3po529LhtK7X3Z+J+uoiVtzD8iPbyQM/+SoJahQoqc9q2ctuex5f8Y5xbZWncNoxcI/5RdPzjrXeVbt1UNKFiZTddUoz+uu8p8ftFAADXkcknfWxWA6uKbwfY6B8/3mE/WRW3TLAWBs9j0ocs7y/ajHK/nX9kwo5rCcOgOQuwwcExMpTIaHWhbP/1UJfd2huzVLDG4lgTkWLR4tmkXXRii53eonThrGUBHiuw4CgC8MKRAAwVVuFfuA4+5rD92sY6bj4EGrYxkz6zL+xfrBY6uJtvZ8rqs7R+EqJiSD9jqAqXqgCoCguPcavVEZ6ocoRYJaLKDfWEqgioJk0HcMm2DUNzAUz1hM7O4lH3dGnXjvC2R3FFntWrOguNRoJ05OW+pxxujY9f7qdyr7GvG9AwQlwgcEV0wPqskyI+7nnbOUdzrM53+5rCHvuAAYvxPCHrjduvEDNqrWBx96+KPbkNpPamt+NzPbE+tsvtUGXQVabUGmG7ulHoeY7PtW2Sm3pdWX4F1vT8sa/l9jHtBwGgeRTFxm5AgdIQmxawxUNh+/SdfdbnS7CIQuTNsmjz2bn19qHj2+3IxhCmOrrQFfmwwE7Kj+3KFPK2mntedfs6W5Kvs1QAS4AHxAoZO7pu0C49YZK1I9EVPNyVC6BSI10Bp+z5D8zvfrYJAK2445IKoVUqlfQlSQJNBgYa26WtJhLCCIFEvUxHJLluU4RC/Y7x0XRKiuKVDzL3NICeVaUQ/aPK7nrt4RsiFq2+R5yKoHiSSoVT20dXeeUEQIW1ZVUhjAv83iURyQLT5wFRPU2jcRTZR0Kt/FfumbvYMydCRnOfnl6o7KeKu5hntjIMgr5julxSmLfSjhEcM0gD+pm1szhGqE4EuVE45nGJVz9SrDDIWHcJteXW35uR7p9nxnnWJ+p2xd1n2zwrz9ez+It2UN8N74tGZq88ga7b7ihI9Hyf1t9ZwppTxQKrfoF/lnlvrHMbueD7SQAgqVm2oAYIoNcbjNrnH+iz63uaeY9lhFAcaef67cL5fnvd7HqrYYJE+B2DOnR/zIvH4ufTRBJidltX2r52zxbbGJ2JdaQ8gLK15TbbhVgXp06os1oAQl90ZxBAst1JWYREOQ/WQFixoDTkkojLkbjLK/DYxdseadAwhB/SpojRiGSM7eKzxX7WQAznaZNQEZEoxlLKo0xdrQOAZp5n56B0iYKAgFKsGqVKlyqp0TFGExLbQ/BFX5gQa5rheqartHCe32XM3kyFOGQ2SjD6itKkPJf1CWuOmhmmtfZll0ar0rIx97OBqBMSPjECkZcwAK5zO+QKMJ8iyVpZmLus6k3Wx8ezq/ZJCEEkINdXynjzQ+CU/SOE294WT+tSVghZ1K51wsVE9eUD0tWeCA9IQIlFNB3nVgk8Zs0kILRPPG/sLoc2W0znuZ7loB8XEuZG2QSgDWfBOIb39L6iVJ7glVisVKn4lK86RrYUg1cEVUHPY54lFwXzhqF9FyU4tSChrrVkKfSssCwbaRDfru3bPS3tfhEAHpuwAax5gSEvZt8uu2WL9YTaXfx+iM2vhXBOTHTaZce1WxMbFEQb+Zgk7OcWLbhrUtzlXMpo+iJCvwPpfNXNq+3B4anOBclCzfHykJ1c32OfOHqatWuFZQeOujwBwIidT+W3fv7bw8+ygaJt7E5b12DKUmQhKsNQKcm1NSGbkYjY3MaozawjSsEca8YogfWEdcmsre4dsk6YRs5HDCafVRu2hXU1TpvmGEMvP5tzZXtka8Y6B1I2mExBeEGLxWM2pSlu85QFyc7LngqJMNB4/qLuVrIk67sF5l/Vn7X1vcO2qm/Iacwg1BpDsExsqrMDmsJ2IGBLA+te65cprbl5VtvoaxAX6+meIVufAdthDCLytnDZjmtrRADmebafZwaJypg91pmzNTxzYGDIEXAsHGa94jZzQo3Nrg/alGDREvjSPpcRygaNOS4r/Z91imW4FLRBvrsxVbLHe3LWQcZo/9AQuJIn3JHf1t4Qs5mttTa7Nmht7Fm0qJwRWZ5jCwM5uEkWEoyV5VcfIejV6ZItgR56+3PsxxBKwrMuQuGIJdiXmYmwzeVnKmaN1EFwjM9yg64IANGXrA/tZJo92Yh8XtcxZKu7UjbAPuSU4JYrWF08yD5GbXZz1GbVhayRW9SNVdiM2OD9IwCQms4kYRVTzOg7ywftx+sxZEtIYDYvGQ5Y7eAm+/IJjXZ8qxYqhDT1/DjJOE8AjN2j0WKVWbYkrHDtqpT96G9JmL8BrEHEOmzTMqvtirMPswPhgDDPkTmoi8ijJ3Wdf6eFh4hzPrv16X5bvLrXlpRrLQuh+kNRTFaYFS0r/yuClo1lUtZUStrURMCOPqTVXjeROXEP5TDonlVTcLRGlRH3UKpsV1671PrjbSQ/of35efuh9fZ2LKEknPpo/7D9ZckWe6qnZF05xIsSmmBcf5DqB+VS5JM2O9BrCydE7XUL2m1WFLRCBVSsbT9McOOmrP3fkh7bkEI38p0U6yCNGeDHx37ISGgN9Nu85oCdNb/FFjSUnSAplSJo0Z0FQBdvXXX7Znuwl9mEZFllbX5z1q48Zrpb+XWEZm9Z1WeL12VsU6GedY85zSSrRgVeYqaaXNpaIll72aSIveHQNpuN8IpVrVmWrFh5bqBCOxqFZ2Z7drbWLck7W2CC+9b12f0b0rZmiFBwuR6SIgdEikNejQOJZVENWiiXtekM+YTp9Xb6gQlel5UN4uxLd2v3o3/LnZFt5GlUT49j8fCXQX7+tjVtN68YhPlJTfe3uL11ThACIA/Z5lXAhlXVMJyyScWUHT6pzo6bn7CjoI0Y1p1PNOdcRKlFWUCiCg8k9y7GIEmCIsxilQ3wqSd6oIHHtthj/bWGnLNStMaGy1iNfC/GGvnKGWR2xuK42LPrY3banBY7ZVLQmrlNxAku9h5LRXPdkw2yfwQA/FQIianQRvmIffT2Hrs5kLBY3meRHF5VMG0LarrtP9DKE8XnYxPKO1NmdflcP4CcY+O12YDdta7fBsSpSHyZRnUs1imzWmxyMGWRctzSULkeG5ZVyQvp3CTg0l/Z4B89tMXWDNcQomywZIi8AmH0MKhwjDz3k6AOsb4SHgGYLiAfND9kr2wcsrcummGz42w6n5clU0YTR0YtvzZ9CUT89r9staFIg4UwKX2kP184q2BvnB2zP2zutR89PYgGr4dG6p0VJUEq490vvEBkI6HF9xrLaZsZGLCPnTLNDo7lrTcTtO8TYrmWKEtPvMUiKM04BJhB8GFjcR8JAqVUC0jKAmoHrN2XtHPm8uw5CasrhZz2HH0N8sal9/TYjQPNhli1JBL0pJY+++wxE23xVgTuQ5ttkzUTnk1wX/ZXroWLvMhqkquDlYRrlcUnLPPc2eVe+9BhbXZMW8xCbFOI+w0rD4TvxVnTkjANpXs75oeQWfsU436kJ2M/eLjDlhbqbAiw19ltzEnWjSwRXXKt5IIEfMPQA4IIxmosDNmM4KD9y4J6O3ZKg9Uwloi0t7M4oQPmlALcEyoTKaf4fgwro2xL0fg/B7i+v1eCtdU9Swyv/Zc1JZ6FnGFu7BLGEAHniCAIhHtFAkk776CEvfGAOLktZSwnuSQkuGHbqZSt5DJevUsuVYAby6JYz5s/e2KL3bTBrN+PdtR8uL/TVdC0j4eGGZsglQxWiYRGhD2uwSU7tHbQ/v2wdgSPH8GDVUzdjFTpntC0/SMA5IYGBJr4bcWg3y64Yb2taJhiYTY6iKiPFrrtXS9P2JsmYLrIN2Nxns3llK4LE2GOssRZUbEUgrAnWf3cPEKSURB3oOxrJRogTc3o+EoRYbyRjb1jVcZ+9+gG8IM2GyZKUdDu4sNGIcgo35XrIvldQgorejEc5t/cIDQ8DFPItMzZNF/K3rBgop2ADdjGxvjlH1fTkSsT1KY/CdW98y8dWEINFiA3osiY335Q0Voj/faTp4Zso3+aRTHpa4byliVumeP28mWlncRU8tXLYcCoTNqa8IsXNBbtX49pt/95OG13bCnaINpCpnUCUzFeKFoa/9URGmMqug5LArdyVsjFYcCAtdgW+9jRjXYyZnN0F4aXBMAl9/TaLf2NsHjW+jFNj2kbtBOnR+x/7t9im0JT5YlaI/ONgEMoo1PIicJ1w340F+uVk9JjQ0JsdxPE2ZDZaG85qt3eMLXGahljgT8Ia4k6/146S5JPtlnA+vh5YMOQ/fCRXlvjq7eBaMJhGDFhIoKbHRYj4FQCACtT95Hg49kFnu1jjWvBHhKlHnvdwQl7C4zZLCxCOAJ/97N3WcYfhoZ8pUE0Z509Mhyyr968wpbnEzYUb3Xhv7As2mgSOsZtE0xTsVwijF/CeQBXIM16QhoI07LVZAftvEPC9jqsj1gFufczJ+EzQBeeCSJ8AhesjHW8Mlu2rzzQafcnQ5YkwS2E1ScF4CePxQuHq/zdw1UkLCUYBE46oLLgR6wwb9b1tfMb7Z/nttpEaMVp/wo2sise2z8CgK2U1soj+W/DfLrinj7riE/yACimP7XYY585Y4ItDECgrtPPrs39sSRQSFOkeRbGOUSgTUUrOEnpZs4uocMdeC/PGqZFuhdY1TAEIunQHwnb/63N2//c22G9tS3gFJjbMD3GvzXnyScoDtkRBzRYU0RSBhAo77f1WApPZ1O2gafmEShh8gvSPLCez7dnEG7HTrIz28NoX6yDwI7AjIb1BILwXX/qslS4HnOckClC4rTpRVuzsQsiqLNQvM7qBntsDtri0Bl1Fo8hcFinZR15WwUukQomILSI5zblMtaMsH0ZOQ+3rwAMDddYHdqvNtNrU6DQQyclML2libGOkiV7aNOQDdVOAFgS5lFrSdVVsA8n13bb1ce0WWIXGEk/85YFcFtfA9YUPrCvhkStlA0l+6yH+Q8VolaHVp2c32oHNxSsXZpdWg/SfGpjwdYP5mxrY5Pl+FwIASpEOwDRT/FvtS8e24o1CKH7h2HlEP9jXorBC9xk3/rRlI8O5u3bt662pYEploxjnTGeaC5vTYDIbZlOO6i9ziY3i5FpJMN81ncXbGMvfjoWQD+WXAZN6Nw+5jw5vdE+Sm7IGVPrHJ5fEq0EJYTRlAI7sQCSRJE+d3+v3dUds15/LVrfZ/WywQY32+T6PpszoQUMBAEk9mNDkymfrQUbWMK4e+NNNpwOWX2AADhC7+DMevv4cRPt5WAuYT7rIhnMi0d66Qky1dHkPQCaPyI1/tdbI9ZRSxQLSyJG3UyUMTcVeu2QpgDPDlkN2EsavuoYKtmqLX3WieffH2mhojYEvUlGZKDZrXbeYY12Dq5IVBjLqAjVSL7aLwKAGj8nkfKgrj9bP2DffiyL2d3m8J4iAzwCL+cKBMBUATMyY/YB8BstxSREhzxW5y6Shp5oDQpvgBjkCWjzPWTB+5zClCEWWAT3YCZv19zWYetzjZZyxFW2ViyFycVuO2tOnR05s9Va2UhttudLgTYgINaShXTtyl67dUMc87fOKFFwfmgdQuAgX49dfto0m4mtGB4lfTWORxnie/7Ug6WCmY/5MhSmxDnbb9kiLgFWxbTYkL16bo0dNyls01gviRBt+gZe3bxu2P7waI91hSYwPQgbZvJTFFUHE2eQdPX+jE0rbrbXgw0cPiVhDWj/lkKadfDDrBF7eKhsP/tbLzUYUTSnhGHA0hGfTct12HdPabODYjt7jAJFL7m3z+7sS6BJkzy73hpJtx4OYX7nWS+ev2giQuzAsB3UELA6CE6BScUXBCCu7EbALuuypR05y8UmQQuYv2xEA6bya5sG7UNHTrLGgHpAgd2X8eedZsSlg1PWoKW/tRgzvAszPNzs0sEV/WhKd9qJ7QH71/lt1s4ChXEh/OxpgfUe4PsbML4eJuX8uqcHbANCYChS5yijiUzRQwqr7ZNnHmTToL0auY+sncFASHesloI9hPa/9I6ttikwyeEAUTatNbvVzjgoZq+fXQs9BFw2gIwa8bF8dK3R4s6U/XFpJy4ktORrcO5BPe7hsXUDdskJUwhFMyj2TIQEFsrzGC/uaD9z+tXSjP3xiQ7bnJgOd5gl4I2GXJ/Nnxi2s+bW2WGQShO0gRNCVCeMSxS2LRmf/Wl50v64zsf8ap3QGOZ+MZTdYeUtdjmu4Uz2dk9o2nMuAOStYnRaELs1h/b74lNb7DcbkbX5Rhe9yYeG7OyapF2C+ddYTmKby2TTzzO/XBiaRRWwLMtdIxC044GJajDCSwfoyu/z/h7kw1tRi1c9uN7u7wPkCzWDG4gg8KUKG+2Dx09Hm3laPC5z3qUShy2HxC4FSDRCwA2zCb/fkLEfPtFNZKPJBtG+EjZNmQ77pyl5e/cRU61p1LQkAP7G5p/3p17WJyHfhZqIIObzEGsUslOaM2QvJmwGgJXcD3VD8ikDDoYYxszsRfv/z5OD9rO11D4oVCSoQ0YUyU8CIWfh637ouEbD3eX7WERCjRlnAOLTvPFObS2Ec/69+PL4QrFS2rpjdRbODthnD6u1s6fFdoJk5LVeem+/3d1bR7iW6AXYRa1LrIrYtGSnnX8EoNf0KBpVbhjjhsgDMsmdP0/hFgy/PlO23y/rsWvXpayLGpBwgc9gSteWu+zKVyTs5RNUKIZlgFBy4ByvlfL9+9X99q3HM9YXm2jxvAR8zuqHu+3ti9rsbAq+Eg4r0CILA5BPjOjBlFddSZL9eBCB91/3d9oKcPJclrmxAXW4aqe1Z+wDi5ptImvkjJ4SvhZ/G4Jb/gsA9TeA1imcOz8L3EiY+awZGfu3wxpsgmhK0aKKRlFOgw+hWIbpcuS4rMj47Yo7O2wJOx9BMA4geBJYhZ88Mmavnaj8FmEUwhDAZXjdyz/uXj9oVz2CGxLDwUJACSGoA2Q+e17C/mVuBDdPfr6sVyISCHSFHCPQhKpiBwnfXr+pYD95eK1tirYAWjc7kHdirtfOnFO08+a34rbt/nrOBYAepbhsANN2CAvg8ge22I1dDdAFC8zgy4FBO7c1ZR9e2O75XA51epYoYDVNTRtZUWBVje9FakVR+g+gjxYfwZMGDLyho2xfXjzgcggU4xaCMGV4jV1y3CQ7piVCyEwAigBGSQ9PoOhuDjnG3JOH1Y9mve6plfatNfXEG8AXIIgApvvsQr9dcuIsO4raBr/LJwg7JFgZZU9C/O++bguasJ11YZ3QYC3ptE1HMH7+hHabA8Ik/NY9WTQtK87F2hE+MPQTqJvzbu+1blyWSAohEOVvfHBqerOdfxJjb/JBRGkYCmrGEsqjFVw0Qm4P481DdJ97tN9+v7kWiwM0Gc1nmKxvm5y0Dy1o4ns7WgHSSJcu7rTb+5rAFMoIAJ81EBvLY528e3rJ3jsXYE3xG8X/WTM5el7yjLcLatumLL4+tPN3/7reru2odQLTJz+WtTkTd+LSYxqBEYeZcxz8xYurr0crX3Bjjy1Hm8qK9eWKNhmB8baFdfaqA2pgT+9JzqoT2u6wJHnLijx4ay4Nfi8uxOfu22C9+am4HghxvtCa6yYE3WQn1CDMowpZywIoWC9WzYfu2mSPZZoZB1aStH8OIXV6ix0ZTQPuyR7z7Ej5mZ6q8TSMojAZhO0fiMJ8+bFO64tOxFoMgXmk7fUTk3bB4a3WwOsC/r1GHmLu6xDIF9/aa4/nmywPk8uSiQ/32z8dELJ3LKy3NoVoHQmjylgEcHT3T2FSWmOUPlo/aNev7LRvLCUUXmwlLOnnOUmswQH7j1dNtnmSeigyRUs00mqkw3HEmMOwHhuN6XBQDdCPBuhDwn3mrq12+0ATWjOCdlT/vkH74PS8vefAZhe/VqLKzkan97D9cQmdDwL09FM9+Ll7B+y+vjoQX4FHJMFgCp7a1GsXv2ICIJGyEncBTjr1BJAGDcjEBWvFBPTZ+27vtI50mw0pySmctKbhtL15VpO9Zx73LSiBJYbGV3ZYhmzFqL0LYHQoMM35gGnCEdOHCvbmhWV7C4RdJ8ARcKokjei2bEcB2YHZfe5Nm215fILV9RNYoiGKQnyvrO+1C47DJHbgo1KZI/iacjh3XEklkfx49ZB9cVkcoVQgAzOD5kjY65s67LKjJhDm3HFHBAJ+cvEWu2WgxWKgeb3xDALLZ63RHrvm5HYITKIKhEVAl4TVLjZODMmwbSmW4cdvADjEFRAcVgI7mInP+pVXT7O5IQkAiLQiMK5dk7KrnwhZXxhwUhgO7x/f0GsfPW6CTXKwnBfmGv08xTy0NzgozD9rPfhnX3myx65fg4uH1ZJhH+KEJV+TSNrFYBB1CFyfy6fN25ZgyN53R489jRmv1RejTch32hdOn2iLIgDJ4D0CUXVJEXhBSi8sKODTCkFbya+PX/+QbfZPdtZJPbUpL5/gt/OPPwAhl2ZvWXetGArwhs0Z+/RDuG+hRqdeFBKeDnrxhVe22CGocvW9HH15Vq53VUOZHdDwRTd32ePpBitgVcdJwAvgzly0gLDrFGXV5J3g0ecVTKwSxfMgALYgAJoBXCOCBp0A+NiBZft3YrNBwfcuPPL8Xco08CGcludj9tHrNtlGfOk8fQRCbHxdccA+fmzcTmr0Y/azQbtLR1ZpM1SnZZSRK4z2x8sG7HdPox3ZSD++Wi33XBAv2RdPpksR5qhSUwtYOzJhl+bDOwmAQ4j9X/2aBjsYCFkZjEKnpWE84t6RxPtg4HNv2GCPgqs0DuO+hMnKwwo6f07BzjmwFrOakJuy1nia/NfRTZAkAH61IWmfexINiWXRSCgz62+0V9VssauOnTgmATCBXIY3TBu28xYmnL8qsNOzcETaO3udAh19JAB1IwKVFXpnF/QAap7PE/3I9djHXx63V00iKiF9Cqo+CAJ+xe0b7bZUi8MMgjBLIj9ol53QYEcBiNVKkDs83bPMRl4SAHJ4tNpBwqVSPPcl/XYxVlMfJvkw9w5hns9NrbIrXjXb5tdJCcm0LtlarKb33zJoa/KC/aRpc+WNYZMAACAASURBVNaU7bT3HpGws4hY1FU1pgvJbmdEuX4SAIFcCYA2bH9LpS1HIpcTjdy3CSByZr0fS0lgNIzIWg1wry8s3mh/STbiLXlJx/WELN86y2/nHtRIJIHNU5x0T5fLWAID4NeP5LqsDloXroiYv8j339SWJBO2ATcAVYXgkXKW4q3S1PMgALbanUPNbAiPlbZHAHxibtneOvUFEgCYu0KRr0PyfvmhjPWGEx6YQ6bdvHjW/vO1E2wK3l8RTeR1FtzF5VI1vc33DF2f/a0/Yxfestl6G2eaH383hJCoJ9rxg9e12gGEvUIwdBFpLiJ5KhtEAKwFbZ4BCg2oEyvaSQiMa06NWwtgmKIiimcLv6jqlpGjADmx827ZYIvLE62G8upcGNQfJrz6iIidAiLmw3pR3Fnj2p0A+MXqPiwA4DT89VhJWWZ1aEQ0+vG4FaPMwh0sAMbehSk8OV22Lx7lt+PaSdly5iUs6SyWkTUU20ctjRzG0sjAYL/ZlLOv359k3qQfIWRr81n795lZe8e8BpBvNDtMu5L7ffBPm2xTuEWQrcvIPTTUbd84vRWzWJFzITKyAnSNTrfyBIDEQ0SuE/fswgJ73619WCCEJkO1VsR2nlnYbO87vNZePxUXg7XS2Ddxr4/f3GNPDjM2uacwUpxI0IxSl739mAPs6GYScZwPr8Ang3IVkQgzkq3kEIRlk0McCr0KwXeVBBX5JOHoHDtn0pdsBaDsB/681laGWsh/oOENqeETcTe+Chh7ODSh1N6yB3DscLkSh1HvKby7GPTz0uvWWm89qfDsoWj0uHCXXXEqIUEsDy/3AHfQgazeDfa7ALgS3/GWnkbQWXzgigtwERbAv01HSslvw+d6Pi0AwyRMoQG++Xi//WpTFCYEjCJOrJTYMyfl7WOH15BU0c+GNu42haJaubV93D7bzH695ab1tiY4xRKAay4HPdhvXzquzl5Byryy3kou972EAPBvEwCKzadCWTsrVrKrjouSUpyCDGUiUnbiinWE8O0oiFQG/X5Snu+2qRZDABQxTWszQ6D4rQY9u6/Ap859cOGmSh5AlWacBUArti8+TRQAy0d5Dv1k8L26oc++dGyjRffiAvThN7fjV//yrFqbTIcnZfzJtHbJUS7nfsfxit4UpY/i/6owafFwrV16/RaEbz3P53twyKub+3G9SDQClPNlh+2O4Xq74B6EBFZCEHOrgIvzxmkZu/xQ1hZzfZhxy53ynjS6Lbw8c+WG0lMCy8HP/NKELi95cJBoQgA3TdGegLVmNtubDg7Yew6e4KwJsHUQ+LD98PFh++1qALaQGs6IZYv0q0hj6aTt+Gl+e9m0RjuI4jWseuI/YnoVXKnmgn0WfsESFOEy4T0ejXjFQZ54lOOSdinftw3U2KV3J20A3zwG+JcKEc4sdNivzmq0CVgeaWoJxp7dn7OV5MNf9JfNtsoPtsR49LRZxS12zWun2mz6Z6IOnFWoGp2qjN8vAsArEy0QGgnbNQ902PXdNP/Ad3IRgsCQXTCjaO+ZJTNFvq7nxz2byzO0KipZIQGJWJeHXQWFKqYaakTaZYAMv0+B1N6CeZmBYMN8tinTZ+8/rMbefADZfyDjxUDtbi2AbQJ0hCPWyyP/7bYtxILxKfEDA0pMIuPxM4f57Mw27ukSTgSQ+m0Z6cbvxP0YCk3C7CQPgKyQt03228cWkETiJHXcEYtL6dQ1yoZ3AuCmdQiAKSSbwHyBHJhF2r51fCP1BN46FBUWk9MlxBqBN/KSAPjfigDIY7pHSSbqK9YgAHrty8c2e7HjEZezAO7rtJtx5eIEvvvxN+Yyk5++io5NatfG/1wdgWTVzpCFs5RkAUSo2RBE/TQMeP4fN+Bvt1aKrgKuXuNy8sIb8V3lQPx6o9kVTymSJLCMHUadXXAIPR8nKQMHqydIabcSZFzp4Wg2kRb28ua95Kk02jVmX30qa79bDlpPqnKGfI9IZtBeP2nAPnHUNNdVgPQbgL+gLcvE7LLbO2y1r9HVVQi7iEI7MUA7mc8RhFQTAOiMhqDNIQdhHvUGqgOIMAzJ3zhWgLxHBUK9FF+vH6UsMrmLQcBOWQO/XG92zWO8wnpQkhEQo00LFez9B2eIRuUdiB53FYA7XhWq2PFNxjfAWH9GyH1TkS5bEFuQ9WnMbrb/PHsmOE3aAaAFgFHtbtVJ2w8CQBuSciGO/nLEvkXrrz901QJr1Ls8+XQkbR9oxS+ZN5E9gtghQBm7u7rGkgik2eQhQm21wE5XTcd9JQDKPpk8yEH5wWIIpYiCVHVDQJ+4dYvdlyU3ga+owqo9tdYuARA6mcQZT3R4OeEjrz2NR3Hgi27utgfzzU4TuKaljOXKwwp2Vhv1D0QaalgFBevWYIa+gzyAfsJvLs2YFXjXlCG7cEGDe5yes6dnSQCcd2On3VuegOaAaNnYRgTAd0+I24LEjubwru4jAfBLJwCwNED/o7gA/cWwvbqp075ERuFoATDEeC65q9duGkwQBuwnwy4BIt7jLI5YRVjsba8wcF1uhrZoLcT5oevWYAJPc8I6CJOcGOnAVJ2MQMFXhUh/vDxj31nmx//HQnBaNmlXHR6wM4nOJIl6hEmfdpoXqbO9I8L23Ro9Hs3520/12ffWktEBfaTRtjno85zERvvsKyY5q8dV2CnZCzT+F/So/96DW6yYmGLk+Li07wRgYYpkJpnWJaXnSoG5BLCsteQG7NApATvxgIQd0lxnjfytDtcvgOJzgJEwRr7jXBeeUySq9N/rMyD3KqYifAzjBwv0wyDRzKUZE2pWunZA4OQYLtdWj4eMnndzudO+eNpUW0RqskKQBQRfUenDLqq1n1wAHewl/aOY8y+e7rUfrKAhCCa1SmczoZydU9NjnzpmKv37CFXBGLvawDHMedtHco6FFI9V0g955RK6FVzWyU8WPK4CEUw4w8/qRFJ+4uaNdn/e1QeyGWQnZjfYp0+caMc0x917uxIAexpTH3/82C3d9lCOjDcXm0YA4N9f8bKdBcBq4lDvJA9gTwJgT8/aLgDaEAC4DHsQALu6z44CII4ASO9RALhagLv7PAFQ7ANfSNixiQH7xrFN2wTA3vZLAiCAkBHzSAB8+IZ19nRxCprSEwAnhLfaFadNASXPQshh+8HTSfvv5ehKzGPtRRT9ePURIaI0VAJCQ1HCuHsSAKPHozn/dH3OrnmUu2MxpbEgChQ/ndOwwS5/xZSdgM8Bnnnzql77vye7bRUdq/sVYxeTEbEJYpEoFVjRV6UFC1RUnUMUAK8u32sz6qN2yOQmO3pK2A6pC7hcEOVhyArIYQ2EJPRhwK8vH7DvrVYwTwKAlGbWJ4T1KKNGNQclNJqEwdguz8IYfbXkt9jnT4Ouo3IqsQlxaTxR4Snd/WAByPRRuSc+GBLn+k2DdvVfk9Yba3OTUWvvo0Nb7DOnTnVNOiIjasbHNtGdP+U1hiLAR2LEVrTCDSu6rSuJdAZ5VSgtSGcgFYEcOZGCDyiwEwvgIgjwwRIE6ARAwWYUttpnT2q3RZhyz0QAUH+DAOiyh7IgugopKozIpn92UdHOaqFcNhzfZgG8lAVAbXmAXAeKauqH7GvHkOM+xjjySAGwBhr4CGHQpUVcICwzCYCT411u/Rvw14vgCd8Fo/kR2roqAOJgDV8+KmIn4OIMEPWIoTX3VQB8b3XOvkasPEzug9KvlZvyz3Vr7TPHTnf9J3e4YOYsYTNZaw92Z+2WFUO2th9LKcL+OngW14CkEh+A7TB+j6IuCp9GUCZBohgCCUm0ttOnlEnmabIDqNiMQHtymOSbSwB86YlO++kmwoq4fCVSA5VzEJXGx2R1rSHQaAGBis/iasl22eVnTLNFHKdVDe+67kaVVmz7RQA441mFOTD3X/uL9gnQ8c66ducPKeFiYnGtXfzK6XYUJaH1u8g935f5yuHwzCpMJqTrE4jOT123ngNGSMVU+SxmV4IEmfe/YqKdPaUWn6qABQBYcuN6+2txckUAFG16frOzAF5Bjf++CgCNoYOfj9y4xR7NkOACxhCFCIQDXP7ysr2GGs2RLsBLWgCUSJzCijq1jWSXI+uekQBYJQvgz6ttpX+qi0ZJAJyRIDGHEGQCAZBDnH//iT770ToKiUZYAP9xdNROBIIfiuZcVedYBUC1Wek3lmXs26sEHqZgWMqrYYJ/adhkn3zF9F3kEnh0pR/hF8NscncyYw9tLtuSrUlbRV3FVuio3+nVLBYJ9RYkDqnWRApArn+eKEJDeqsd6O+28044yA6vj7jaFyU5SQB8ZWmv/XCdUIUaYBqiKYCfEwGB5zaD18tdFWrmKl23hxurr3f1218pnR7JP6oGfeNhkxFA8LzL0BQMA4dWyj73iwDQooVk8jC1NbgBF964ldTIhCsGCpAEU1veZGfOLNkH503F5+NjzwID3C4AVP4ZtL90Ah49SO0BRRzKgVHFXntmE9plip1UAyKMkOjCBbgEwO7ejIcByAWYlF5rlx0/wU6cSAmuBNguMIDdCSaNYT3/+fCf1tgykj9EWKpUCyPBP3u02ekN5PsTy66lRl0YwEtZANSDYwzhfx/fkLZvHEfY7hlYAEsxmy+8fhVo9QFESjwL4KzWfvvEkS34zcTPoZmfLU/Zd+UC4CJWMYAvLArZGaDvSczZMNp7XwXAlQ/12s+7ADkdFgM1Avi9f3qffWD+hJ1I0Iv0yKgWoOiF9oTiDvNNgYv9xYhtIRdi1eYBe3KAo+yGchxlFwUfoRhIZ1zAaRT3ueSoOPjF4bFBu/KkaTadoifVHUgAfJe6jm8uVWoayb9o/gSRhqMIxV5w8lRySmVneJWDY7mqcQZn1lcEhn7nsYpV2CY8Kk/ym3AyV4lYgYr2mwBwHXZYrj5W4OoHuu3mnkTF+Ak7k2kW6bJfPanN5kSVhorZXUXUnSU2IlC5l9nrk8LNa/L9HC6SsM/9bZh6eAIeJJj0AvSEQGtPQuBcfsosmmAoh7oIHhGxT92x2W4ZbnN11X7SW5tzQ/beBWE7Z6ayzgB7YGIVfOzkVemB/CidVFsjiSrQ78nBrF10a7dtpuoxXABwwQJIIHy+eWqjHaI+5arDB4kV4a3KhV9yGEA1ClDDWvVzatNc1vynZ8QBH9UTUJEIr01W5fSFnXZNqFCM7yp3/rb+NCh7DynQZAO6QoagvXvSoJ0/XwAdC4vw/BXVPFcvAbRS9qQiGbh2F8wv2dsIwxlAYUG9EirP2xlDEvNWWMEpogJ5ABE7/55uW96vBGK/dVJV10QC0sXzI6Td1jsMqVIo4jE8TU/cydMScK7UmIxLAFMgSNfgQ+6mD7BSSjcNviQQePWQ3x5d02+30axkSbnFZfGp54BSo9oKA3bx4SE7vR3BxedV1v2/G3x29SPK1iZKA/MXSFKaQ6rU917ZbG2yhLAmwo4xRtkAymeXelV/BRfYE2qo2COgBOFRrycNn8GVKBNhUKctp88qDW303Wqkd78IAFfo5DaHFFMGd91Wv/3H/WlLBgmIM/kUBQyJ4QF72wEFe/fLAJK0iq5mV1JWoxuLzNv+GWU8BcgSW8pZAx+5qc82E+YJkTfeV6usuLR9cEbB3jKDLDPi4WGSQoZBQr/2SJf9ciMdiqMqVEIGkxl2xsSsXXoUvQMJ8wxjQeyyhXjFJfN6CgjEJnwDkV5L5dmXHyHTLdZMCCfFnOh2TAecr5/SQr09RKw5KuOO9ViVi730BEA1FZgEA+UBTCR1+Ydn1tocGr/II9ahLNpzHdBaqTzYYRPVIkW+cZ7P/YAkpO/jiw8TGVILohLC+sojivZPk2h0AdH78sN2O01kL6KXnFqQhTHlpK3PaB2wTx8FloJlVVB7cJ6g8N3OBCONrf/zPUKPOnRmKZbnebSlKxRUlxJjn6grSK+xa06ZbrSm4JPoW9B6AchEad29NR8FUBOE0xQFyJNJF9oZZ+MTgqFlHRCe5LlLSQT7/N09tPMim5CxqpFMDcU7b52StPcsJHKjPADudzt5AJfcQVo6vR3iFHv10oeghcKh/z2zyWaBeeQJRe8yEbBS+0LAwI3SpdSrrwRrO4AAVYcitxeMRTQqIaLXToxgAihLotpxa78IAOVgeZnamDBMfDX+2iU3ddlTsIKEgi415FBe9Bdp272whpglxOEcJyWReOH7sV3a/2yB2L7Pvvlkn/2RBA4CNg5/yLPJM/HOrzltkh3kIvAZZ2op+eWP5Jl/7XE0g+L9SkfO5mxeBCY+o430GhUYo4121de9olxUNhqQL8WC9+NPXb64x+7sriFvHSJBEjcQFnrlNPLeDwcoUwNRaRK+owy1leTTv+MlFgXYXgsQtG5Cue1wykfmF+3sWeAq1NGXMXtF7GrQ4RVPj7y0SaxpIWJ9hPUuvnONLU6D99OPIIh2bUVgfv3VLTYf87gE8GYw7UoY/EPXbrStITrxqE8ADHOgb6td/aoplPHCboqPO/dDtuzO1QASAK65LJjPIMT0f+uH7etPkLGIgFGBFM237ODyRrvm7ANtCswnoiN73q59usfu6dA4ENrQUF2Wgic6V81wHW7VmWXXZFmpRYQmyDNhXL9fnbbvPUlfSu6j1nQhNPyrqbW49NjZ5Il4uSqrWLPz/7zBlgebXHWk4v4qRb98Ibkj9JMIqoPTLiRAVThpJM7SRuVn4Z0VSfW1WEI6ehNRDoWYzY4m4vbml89BESIQSMUWqqGwN8nujsn2iwBQ842c68wigCfNBkTsp0tT9tM1hEzoJCsWVTKnOuucWtdjHzm63Sbz2air65UAELPsmf+rMVuX8IEGuYlc7y/du4VmkRRx6MgwaKIB5j/30LC9aWYjabnKUFNHIFonMr6nabVz0Q2bbX2wzR1YrMaWddTkX7iImu8pAEVK8RQx7uLyDgNRSy0tZ9geZfEvvL7fBklfTVF4ou63k1Ob7eMnttnJNBMQiboW3Sy8rLcVDO6lKwC8YqA2mmAc1jBEy/UWm6I8DJf9p33VHu4sAEqUEafxRu/rKdoV1Pd3hVsBo0ieoZT2KHIKrjx9BuqhUqQCc/dhZl9520a7M9mM0U1CDPq1Jk+yFoVaZ00Ou0YtZTSrcj12Lifzuue6SgHWfRMuxKfQyI+oUAYNqMzD1nSK9llRe8McmmxUGGkA3/w7D6y231GtqD6K6h/ZMDxoF5Ee/cpmMhJRNBbfuXRd1OBGrnwTyqrVgOS+3rJddh/uIcpFAkDJQ69p7rJLABxrXPm6j3oHn33pgc32+x4sY/WfRHNHcVnOoL3cpcc0ccSdaix2fp6X5+j1NlSVpZCKQe73fQ7IuZHTsvpqJtC2jb4MKJx3Tk3ZW+aTMg7dyTp7HgSAVCSmG+2YxKQ6kEPlnatJcrj4BpI/ArOc0UbzJFJyQxR4dNq/HJqwc9AktLhw0kwtuMX/e0suEW/mMP/Xwryfu2fAnhpSTkEBAFDGu98OLiy3q86YaQfRcMN1/A0msQPirmdbH4DIx6meepSyzyycrJOMYjSIOCbSa58Gm1Drx9Corq7V8XiNqtQLMGQDbNCP1vTZj5eoIRNCTUUx+F4Li5vsP183wya5xG8vL1v/kZGzAhvz3JdQIpA06CcXg5nsUA2otlbUdRxdZ6fTtELJQyp60bHtu+rv0C+mRqN95Q6aqFCXn8W0p1aKPgS0zTooT1/CNtJqlYijtmsUWPHz66X99s1lpGtHSFbCSshDT4fXIkBObqDpifYSDakU5J2EdKX1mRrC8J1HBqiKu7OfEB7l2uy1rIl5wxn77FmY2tCEckNCqlYE9/nFskH7+hLsFc6mFAaQoJLv3w6kg9Ncta5HiTDuXV3OKpeXB4g5jBK4saNgVz7APHBx8ig6dff55wn99hGan0QgAnfMHWty3aaUffYRuiehsdVKTXksE+GJa8jfP4oWPyOb41bpTwfHePrRa1mPKDTypuwzt3baOpRfKkwKMXwxgZyEKwFqj6JbktLK5ffLSlPdQFANUCo8tmdVu+Nfx1AOLAGQBhhThTi6gFJYpWvK7//JEhIfVsbZfMIhuAY5bJQ8YnNSvsveu5BqNAqEVK8kAGN7jaBDc8Q9jpGql4IjIogkE/uvJ9fatRuoJi834LdzDkGU9ktUZb1jdtbed2Ccqipv09QuSf33ggpl4eP/ZI3PfqRGDJiUSbXYwjWYkuRMwUVqcFFPu/KqcVkdg+7i1ZopfaNEVtgyhM+n3IEk05gTRKnjy8Ez3gru8MEFMQ/fcIUZbvXdLJbDI+f+mUxAetup/FPb/C78w48s8Fo37M0sUyLQ+1wmoBKBhtFqaiiSsu+cUEsm4N67KbtaAJJcrlYtQECJQBnrZ41e0wjhHdu+m2KgrU4AxImL98RJMR1GBOJ2nRRYx+lLaG9q0PVkxJ/bvZH7JeZYCzH8Fgvtli2AoAk1u1SmXIEsOtyu05rsMIhdLVi9boIKleUoyAnbhbfm6NkYwRyHsagLaEsn7b3UkrxxNhWCEuzbUlpGEqr8XP2QSszb31+80n7c2Qpj0ksQzCKCy/Km1qC9BwtgAv0psvQZ1BpIp95BQsen705ZN30VdQZCAvT8iADddVAkLTCPqhV3vuTYacY66IUwM0Lsu4/32G/BmNS7UE1NG3jme2bn7F/pR+gd9EKKM27BKiIqH7o1aRuoFpXvnkEpxkmQ+3/NffbRl9MpaZt9M5IGle2qURAl4f7KQfnJX1eTcTvBethPJaJNIAtxIbUoV51G6bRCj7I6cGkcxgop7sdU4J2Z1Vsw+rfz5E9zcMfidKuli4TFGAzWu7P4E/Q9O3mK2T/NbaSXuweaSaNoQZ1fqS4vMJfysnMIk05I7c51Q3bLk3R7gRFUjOJCJmyStOyJ8W674MR2m8a7ETd7gCMH9cikwojCRNoIUV5yxzp7itLPAcZTJJk7iqSeTvbUvy6aQnkqY2Slo6DO3okFleYWLLpadK3KBDAZt6BhOBAjErchTFpyuWwWyTJfQEsthFFG56lr356SALhhBdjBHPACHfAwbO+eELQPgxKPSQBwk/ffspZagMlWQ/85C6WsFY349ePb7NCGvYMnEgC/wVT84kp1Um4hYkIbLYjltXUp+wLNUEb3A1BHoE/RI+/WTgBSP70QQwmaTSTRWLU09+yzRbXDdtYhLXYYabrN6giMBSRLTqIgifm7lL7936Crz8rNdD2K1rtcfO2VmP/syVQC0t1HbTdVkKPgl3eeX541jth/A9b+Yl3EOhGWOjUqBsG0ZXvBV8L21pc10pqsQMNNtRJzK+cSvzwHwKjsC9ovmeeflw+RPNTiMlNr8Pen0t7rM6+aYQQA6L1A5ac7oMVr7b0JGrnolo32VKFZlINlUKKjT4+9Zg519aRqT3PdoUSbfF4/zsAD2lXJN3hSD1bETR1Z+/HDXeQJNDoAUIevTKXK7wuvnGGHksegcm+fXFKuPhj+upU99tUlYdaKqkJoVYXzNfSTeOXsOnvrwXHXzlxdftXqW+32i+pKxe9hmH0FtSC/eqSHXo9EIsIT6Gik+5tNS2+yj7yiyU6b5J2Hubtrb8pm9PfGYAHs5lEy63AFnsT8/cY9m2zJUNSGI4AfmGMKZeTZxCBIvLq1LsBvXjAxxPHgMauL0H8NGhcGQx9E60plbVnnkD24YZA+fpg7LDp5Ya6hhzKpmgDfDo7T2QZNNptjhetZbBVeaFVkuLvmtLIyKGpRaeotgxn7z7s6SC6ZaF0IhSImWyPaJ5HqJifAZwunN9AEkgpBHWkgMcZ/ehnIk5sG7PblXbYx0MLCNwgRAGfIWkNys70NM+8NB9CuSoJDoNOIS4S5BLlw7o1LYbq5DqTKh0CHaaSp5g1jEQAKOb397tV2H0ed1KZIPgn3c0bBsP2ANmuH1Y9NAPyQ1ulX0NiwAOvFCEv2h7rsNbU5+/aiSTvF9iUAPr24127uplkpOEpHtImUV1JgsD7KlFOXkcoNCM5ZsazNA7xK1FJow0TVaGVJ54At7Uaj+icATNUTG6dHgQR+ln53NSmsh8k2CUuiBrdR/RdkB8hOUrMMaeBVxGm/QOnzChp0ZLHaBKopfThe6uUADnoKHlhvsxM11lxDNIf7KvbeOZznTIWMPbhuwJ7uByMPNFsRi6UU5fyD/CZ7F/3SXjcTrY/wCKnQSmE95qgOPYO8+vXKpH2HKMUgPQiduwqw10oK9CENRftnugrrYBbO5XAlSKInHfTWz1y39uftXiIctxLf38oaZaFN9bxoxBQ/fXLZPvAy+ksigFQ45c6PIOqQRkD0Me7/fixpd+FKbgy1QQ9YyNBnA2t0UM2wvXwaBUc0+IzrmGwlCjKoPoTq4zR4fWBDytYX6VysvBfwBo03Dg5xzgE+e8/8Op5XCQnuhi2fPwEggcecVaW2DMr46cNbAUpIyQAryCIFkyDpIt0YUrgG8EO+lCRtUMUiDl324m867iqDZlBMNo92yarVNIUTefzLGtyBo8LdtLhutTnU36oU1jWMUGkW/1c7JW2YO31QMVPiKH30wf7Duqz96v6Nlqxrox8/VYtCbRlvA7FbFaGoG43r3qpvuwwyosFYMwW0vrrzCnCMMNZpJBO9bWGDnTmbBgxgH975hjsftrUWDn7vjTyP0mFJ9TTlvG9rj9mHjxhbgYay0j54Q5fdT456Iq3zCgatga9+7aQ6useOTQD8cnnarlmG2JLbxAQGYik7FQHwZRpujLYAJHAuu49iIHoC1vqGMDMbbXogbSdNzdoNy7PWFW93llk9cwnRziogBF0nDSnuH0VIS+DCXFn83AJc2khJ9gKaVl5AYsy8Gp0h4LlUrq6+woxKgpHIHsI0fnqwaN+6faU9FZgK5gIciGAIYybE0d5xet/VKP1WlpS+wZKr1k6AYzZKERp0oRODIoTmmijzPuuAEn3yainWSbpwoA6M9WgCPALAWpbqplKdXUYX5EeSKmLDsoSx1ExLJUEPqQAAC6VJREFU7mwdTJkgr6O5hrMOqClQXn8af3orHZIGaJM2hHWapAAoH8FFAfGtS/fa4Q0Zez/nUx6igh8lOgEu67wIvxQO66Fwntb4t0/12C9W0vFXQhX6izm6VwdkugPj4vmDRLF4plrTq44hCwCaoaYhi+uaZ/51/C2a7rNjUZ4fPLLZ5lACHBD4tBsweyzKZrTceBYWALdyR2+pNVHINjOx22mo+avHdQgGHezw5+T9qwmnTKuU65vmXd5vYpkQlB8B4LV4dm4k5r3SJrtJvMnYUdMxmRaQeEN9fVg94WTuqzuwdAqLrJ51qq5yXbIE6EC1+nMnlsCSnoL94r6VFKgknCmVRjqrW3mYzwkg0laox3z18EvX5AEhok6CYcyz6Sz2vx/VYke3hayFXHMvOaXaP277MkoO3osLcP5dG6ksawVIGyJNOGvvndhkl82TFts7A6tH37vv6LDHyTqr7cMcjNFwhLX57rENdlhi79+XC/Brqt0+/Vi31QSaLIoK66/PAoDm7JuYjbsqB1ZbcBUDxWGJJM89CGz+mjNq7folvfbnFVl3NHuBE5R0hl2ADdKPss5c4xQh75wAraOyIjD/4XRcOpe1wo0HqZZpqzFLe3knSru+jVpx1l2VnGo++gSZdl95ZIOt7qenH12cSqSUR5lzhlOmXM5JpWpWAkAuRJTbFjC+Ujq7AXGQILz2ehJ+3nxQPe3ICfjJpJZFgTBXrFyHlaq/gJ+TfYqY7g/C0N+6fbWtxT3sI6yWQqDRusIpEY1WysmVGgtp0GkxvCu0X/CcQtwq461LD9gx7aQbLwJshM7wzh0y4bofC02oHjarY8fBxPqIR9ywvmD/y/kHPdD/IJG0HJmQWkenGuTekkuiY9W0Vg5tEaDHItXQ53JiqdNOPajNXj2bU5BQtBGEhjsvcA9HsI+F3kYKgWcsALwjLuXTK4sK7cmM5IGuGfbbtbRDvnNLxjoIyUkiK2SmUKHXRKGCmDpNrrbN+j5SXQASGxYFpZ0Xz9trF7bY4RMID6niWmi0S3XyjmDSJXSaLYJpa12NuWteIcDaJelhhsN466G83xEHvmU1oBg1XEkO/HQHcriTgQCU9GwHDIo4OVOPBW7Md9uR02o4bIJwGHXhSoH2Gmp4GU2j2VGksi6bpyhlJeHuCO24cI1oGH9KTbOdPluNMvfOwBkE6Q+eXmOPETtuAsRWRyAVVZ83d4pN55y4vV0SAA9sHLTfbO3AJ661MEeI9RCbWkg++lvnTcEs3nEMyoq4lDDaDUkEQHmQVWyyeQCeP3gNkQ8++teN/XYzfuzfBvHVw5i+0m5oKB0CI+EZhAHVtnxmbNhOnVZrp81qZO0qthHZmd55xh7jCkkXbXiHjHuHjKq0XFGBLhj+9+TP38z+dFOQpLh9KUr+Acyv03p0SZuKZiII8BIgWzOWysHhlJ1z2ER7WUvUM9u1h1XT2PnxWGFoeVkdYVwpjvRw5/Otpd/3HxBwd24s0425AaXAZ12BmSek1AJNr4W4q8tvGgGgSJByQCbj/p00PcYxaM2uf2FQLbp04CvPj7pTjHRImQah18pP0cC9Or2nkrSYe7LXHka4D6Pli5wS5axPJwS0SMpMVNSF5q+sb31+wBZNidrr5ybsQGgwTp9F9YApOqt629nSuySLsdDbcyIAPM/bax4p8tLBkX4RP+9RFGwbyKe9G5/t4a1DtmYgj56pQheV3XLEIQ9Rh3bkbWZDxA6ZWGuHttfTBEO91tQXRok5AkpcblRFC3u62Ovni9mP+VRt6uj6Bzha1/tqIAGpwoAdmItLOH/ujj4KPsh466FdmOK5clUiatqIKTe5ocYObI3a4ZMTNokuuW3SXSrcGBE63C0rkwiiTq4iQmEbEiquT/zY0r61eM6UzvAj7SWLSHSh16P7/+1OGIhp1LdeY1T8WpmNah/m5M+ogUsAfPLuXrt+iO6/6qiMtj+U471+/ircBWk0BGOSeW9CkCzrSdr6NN1thtRtGGygNmbNdVF7GaczT2RLtU8ifa/dccVCqDyy+liH57n3KsUw6u2AC6GThZPkWmyGWZ7szNoS8vCfGPRZFz6RmotKsKkRRgu+8iz8v6ktNXYYBWDzmzioA5864CphBKIpAcabpnsm35Mprqty7q9LrS3yWbUmXwvmc9+qIVu6ZdiWpzhITmY7SkSKRNWtQXg4zP3jSKFJNUXOY+A8iWn0BagBv5KicU1qNFfvPMAd60yqaT3SRHqtMB2YDK+W03XpYea4Zuuw9WCR9A9rTNAgB70k6GQ8gQq/2U21tpBehdM5eoi8StfuSwLNNSCpNNzdk0rZbwJgbzH8kTFN1/5aPc6Z/wCE2Mkk1tPlsKcPYkvix3hN1Cwci3ICTMJmcfaZTkNV3xyF0Wr3YOI4QnIx1ypZ7Y4lRAfeZ7zfpHYi5mXyyTxUprKYTgJLm6mNdd1feK2STV/lVM2xPOvF9JmxjCXJvC+9i666gxIAnJRMyuqhxGF+fmZrJV3ayyhT/F4AlawpnZgjy1hFZ5JrWisdp723fdj9eBTJUcotZrEOapXAdu94lztctyII3VkzLi9BPYa9tCSPCXfMM9/T3B0FuBAuoWqdfsw9e+GrQW7TAdjXzWnEfVTvyRKoixMyrqu16bhf9H5xff2Fa9RUjuseyxrv6jOyDTDiXTs19xvBpYCjjgOXYytrhhQip5Rk5wYQMPv6rP0mAHbPZqP+op1z/C0C0qGHbCwaTmaatLhMwECFuRQn1caUOCCihg/IPHeXC+M8u2skYVZLMH059Zb3TDOvr54ozEvWUA2Aa/fkDf3ZHG707Ab+PHx7mwWwBwFQHYarXZFA1Brxcps2f5Zl3+5O0vA6DKVyX9WAhOil5/ryu0xPT6eXAG9UQ6BehXrLM4Rl3oy9yGSbABBkzHOkeeWshHRWuE4FVrs2ch/kh6uaVE8OyCJTrMmd5SfHXTp5T/p3L5sHY+uQE8/trdC+W4aKiyt8ymX3iA/UBHLsHQS37dcYXM6Ro3zGGMDupupF6D0T3Yf/7PWv1IS8DfeYzvu2hIEyxVyPtcpBHY7Cxmr3jpFZJAC0qSl3Kqt38INnnavxSNXfFB7gtXKWBfOs6XuMY3shPrYvAkBrVFafwBGEpX1TT8Rne1WowVP3juilMLwu95V8K/dbh7YQm3EM7yr6HHjrmf37crl7OuqsmOmuzE4nD3liTTkH+oQsGy/Vu3pVFcPek7L2Op5qY9iKe+CV+lUsGTc/sQJudUXg7vV+oz7wglsA1YYL0vZiJ+/sEpl2O0trD4PXtntnsVQJYqyu81gXp+oCuDV3W1yVQVp8+Zk6DcDr7iINIOIiwfjZyPqxDu0F+dy+CABnAFRE+vYdkrm6j9y3y5lWNsSzAyu314Ge1ferXxJFSBtWd87bo30SAE7AyNrzaE2JTTLAFYKusnr1WBDtfDX3sUqXGsm+6+MdJ+2t5XYadLQoAVcZgAxQ4T+VCppndMDeCy4AJM21Oe5UGSamcxp1qdnj9ql7rO6rZPR5CPt2tty5GuzZ8YnnAmh1vceo37079sqFfZRZoAJYve9FNjQDnb3y93p5AkAYQBMYAA01ycE41LrAAMgi9HZm29TdrlSpduSCPGspLSb3au4kdBVK83ZJ/xupfSUXPIbXVfX6XbecfZEALoxMnoky73il4Xulx87e8PpXVDEjCqGUZVpVS9Xx7Koset9oRHPWOLyW4tU5q9jMswQE9nk06Dk6e8r52/WTX3gBsG8rMv7pF2AF1BT04sXrEACTrJYzr7PkC8zneO6fv5Y6AuehPRfa/ZlNbEfW336P53JE21yPZzbEZ/mtvT19F67HPjxxXADsw2L9o35UAuCSxWvshkGd0EumGym4h5BE9dszSKeVftoXzfqPuogv0nnv69495yDgi3Rdxoc1YgVUBn/57VvstqTqBigcqs3YLKzxn53NiTajkobGF+6ltQL7KgD+P7YU0Gbf8/ujAAAAAElFTkSuQmCC;" vertex="1" parent="1">
          <mxGeometry x="171.92000000000002" y="144" width="46.16" height="11" as="geometry" />
        </mxCell>
      </root>
    </mxGraphModel>
  </diagram>
</mxfile>
